<svg version="1.1" id="Layer_1" xmlns="http://www.w3.org/2000/svg" xmlns:xlink="http://www.w3.org/1999/xlink" x="0px" y="0px"
	 width="100%" viewBox="0 0 3796 1774" enable-background="new 0 0 3796 1774" xml:space="preserve">
<path fill="#FFFFFF" opacity="1.000000" stroke="none" 
	d="
M3798.000000,890.000000 
	C3798.000000,1185.253662 3798.000000,1480.507324 3798.000000,1776.000000 
	C3065.943848,1776.000000 2333.887939,1776.000000 1601.431152,1775.454834 
	C1615.717163,1772.229370 1629.729248,1767.628784 1641.811157,1758.657349 
	C1651.787720,1751.249268 1662.254761,1744.166138 1668.806641,1732.218994 
	C1681.046265,1716.012695 1686.364502,1698.374146 1686.322754,1678.658813 
	C1686.118286,1582.006226 1686.229248,1485.352905 1686.228882,1388.699829 
	C1686.228882,1384.790039 1686.228760,1380.880371 1686.228760,1375.779541 
	C1690.924316,1375.779541 1694.483154,1375.779663 1698.041992,1375.779419 
	C1748.701538,1375.776489 1799.361084,1375.784790 1850.020630,1375.748535 
	C1854.007202,1375.745605 1857.993530,1375.431763 1862.902832,1375.453491 
	C1867.486328,1375.691528 1871.147339,1375.803833 1874.807251,1375.775635 
	C1940.655273,1375.269653 2006.504639,1374.873413 2072.349609,1374.111328 
	C2084.242676,1373.973633 2096.118164,1372.319214 2108.829102,1371.510254 
	C2117.826172,1370.526001 2125.989258,1369.346436 2134.166504,1368.276001 
	C2164.442383,1364.313110 2193.921875,1356.879517 2223.039307,1347.887329 
	C2249.248535,1339.793091 2274.413818,1329.097046 2298.918701,1316.852173 
	C2312.718262,1309.956665 2326.303467,1302.631470 2340.626465,1295.324707 
	C2387.906738,1268.125488 2429.711914,1234.984253 2466.792480,1195.879028 
	C2470.896729,1191.550781 2474.998291,1187.189941 2478.739990,1182.553101 
	C2491.433594,1166.823608 2504.723145,1151.499878 2516.384521,1135.029663 
	C2535.028076,1108.698486 2551.238525,1080.869507 2564.599609,1051.369751 
	C2574.211914,1030.146851 2582.767090,1008.592712 2589.532227,986.321228 
	C2600.666992,949.663269 2607.460693,912.089905 2609.409668,873.944092 
	C2610.711670,848.462524 2609.044678,822.804688 2608.176514,797.243713 
	C2607.283936,770.968323 2602.428711,745.245422 2596.384521,719.694580 
	C2585.282471,672.763855 2567.296875,628.579956 2543.187012,586.946472 
	C2512.685791,534.277283 2475.015625,487.441956 2428.933350,447.364380 
	C2397.698730,420.199554 2364.448486,396.137085 2327.398926,376.118286 
	C2316.418457,370.650177 2306.192871,365.217987 2295.607422,360.612000 
	C2274.455811,351.408234 2253.422852,341.786652 2231.764404,333.926758 
	C2200.580078,322.609924 2168.152344,315.643890 2135.416504,310.422150 
	C2123.714600,308.555542 2111.816406,307.921021 2099.128906,306.502441 
	C2088.058105,305.592590 2077.875488,304.641205 2067.671875,304.278046 
	C2052.464600,303.736694 2037.242310,303.610352 2021.781738,303.067749 
	C2021.008179,303.104187 2020.479248,303.380341 2019.054443,303.868591 
	C1999.780762,305.485260 1981.363037,306.510437 1963.040161,308.435791 
	C1951.950928,309.601074 1941.008301,312.161530 1929.173340,314.040894 
	C1888.727661,320.942719 1850.479492,332.620209 1813.480469,348.241425 
	C1797.979248,354.786011 1783.032593,362.644073 1767.123169,369.940125 
	C1764.445312,371.154816 1762.536377,372.446747 1760.502441,373.497009 
	C1728.595703,389.972717 1699.075562,410.086090 1671.206909,432.621002 
	C1662.252808,439.861511 1654.065918,448.050964 1644.948242,456.114136 
	C1633.330444,467.410522 1622.041992,478.160461 1611.302246,489.433197 
	C1581.569214,520.642029 1557.041138,555.617615 1536.055908,593.244934 
	C1514.401733,632.071838 1498.455322,673.064392 1487.681396,716.103821 
	C1478.379639,753.262451 1473.271484,790.984558 1473.161377,829.696228 
	C1472.638794,830.693604 1472.518066,831.354065 1472.328369,832.947937 
	C1472.242920,836.212585 1472.212036,838.543823 1472.212036,840.875000 
	C1472.211670,1116.643188 1472.193848,1392.411377 1472.303955,1668.179565 
	C1472.307617,1677.088379 1472.961182,1686.113403 1474.517212,1694.870239 
	C1475.898438,1702.643188 1477.816040,1710.724609 1481.477661,1717.617920 
	C1496.162231,1745.263306 1518.151367,1764.449829 1548.879028,1772.745361 
	C1551.985840,1773.583984 1554.962891,1774.903442 1558.000000,1776.000000 
	C1177.277222,1776.000000 796.554504,1776.000000 415.368042,1775.407471 
	C437.363617,1770.003784 457.123413,1760.406616 472.801270,1742.168213 
	C476.594818,1738.042480 479.992249,1734.402466 482.934875,1730.426147 
	C495.999390,1712.770996 499.624084,1692.232788 499.672668,1671.040894 
	C499.888824,1576.747559 499.762360,1482.453369 499.759827,1388.159546 
	C499.759705,1384.296997 499.759827,1380.434326 499.759827,1375.267212 
	C518.795837,1375.267212 536.382996,1375.267212 554.893311,1375.456421 
	C631.554138,1375.680908 707.291809,1375.719116 783.029480,1375.731201 
	C784.677979,1375.731445 786.326416,1375.431519 788.897949,1375.459961 
	C818.960205,1375.185303 848.112488,1375.110107 877.233765,1374.121948 
	C896.373047,1373.472290 915.579285,1372.361816 934.550903,1369.888428 
	C953.831055,1367.374756 972.860168,1362.935303 992.757690,1359.445801 
	C1006.576965,1355.911743 1019.733398,1352.580322 1032.680908,1348.573608 
	C1075.006226,1335.475830 1115.173340,1317.363525 1153.489258,1295.212646 
	C1164.354370,1288.931274 1174.519409,1281.439087 1185.667480,1274.387451 
	C1208.867920,1260.053345 1229.352539,1243.114014 1249.122681,1225.410156 
	C1270.143799,1206.585938 1289.273315,1185.862671 1306.979614,1163.821655 
	C1329.113647,1136.269043 1348.384766,1106.866089 1364.987793,1075.710205 
	C1379.248413,1048.949951 1390.608398,1020.943359 1399.821045,992.074890 
	C1412.092407,953.622070 1419.292480,914.118103 1421.524170,873.912476 
	C1423.050903,846.409485 1423.649658,818.749756 1420.203735,791.254761 
	C1418.142578,774.808472 1416.735962,758.218323 1413.540771,741.987000 
	C1401.156372,679.073425 1377.417603,620.598511 1343.149170,566.403015 
	C1324.103516,536.281921 1302.446167,508.049896 1277.817505,482.414368 
	C1260.358276,464.241272 1241.243896,447.548676 1221.970825,431.256866 
	C1200.376587,413.003052 1176.917603,397.197083 1151.674561,382.918335 
	C1145.771484,380.024567 1140.075195,378.110840 1134.995605,375.141876 
	C1107.261353,358.931122 1078.319824,345.428284 1047.917114,335.012146 
	C1015.487244,323.901459 982.264709,315.941223 948.462463,310.614868 
	C933.117615,308.196930 917.494507,307.545197 901.163818,305.954407 
	C894.432983,305.291168 888.539734,304.367584 882.638184,304.310455 
	C859.134705,304.082947 835.628662,304.125488 811.702271,304.118103 
	C810.722351,304.352783 810.287170,304.694611 809.078735,305.395630 
	C792.498596,307.133331 776.745483,308.172455 761.153687,310.361145 
	C748.576233,312.126740 736.193665,315.279999 722.920898,317.821777 
	C692.679993,323.619629 664.159180,332.643341 636.473022,343.955139 
	C615.928650,352.349030 595.784790,361.880371 576.044067,372.035553 
	C559.585999,380.502136 543.972900,390.611389 527.326660,400.165985 
	C514.402893,409.256470 501.665222,417.601532 489.994995,427.239197 
	C475.964172,438.826355 462.841736,451.513428 448.675171,463.846191 
	C446.750397,464.996460 445.370087,465.918304 444.218384,467.069000 
	C423.854218,487.415253 404.627930,508.821350 387.581146,531.994202 
	C376.848846,546.583435 367.625824,562.282959 357.190979,577.935974 
	C340.754913,604.453064 327.565247,631.848999 317.017181,660.478394 
	C296.627747,715.819031 285.498657,772.818909 285.647369,832.006714 
	C285.922760,941.611877 285.724548,1051.218262 285.723572,1160.824097 
	C285.723511,1164.733887 285.723541,1168.643555 285.723541,1173.250977 
	C277.106934,1173.560425 269.549835,1173.831787 261.071289,1173.964355 
	C252.278397,1173.825806 244.406982,1173.825806 235.719406,1173.825806 
	C235.719406,1168.073975 235.719421,1163.798828 235.719421,1159.523804 
	C235.719437,911.029663 235.720535,662.535461 235.710114,414.041321 
	C235.709946,410.046906 235.568634,406.052521 235.589340,401.538788 
	C235.272232,400.471893 234.858978,399.924316 234.397461,398.528961 
	C233.086349,389.863586 233.074219,381.577911 230.352844,374.306152 
	C215.362076,334.249390 186.581253,310.801361 143.069031,304.574158 
	C133.188904,304.348877 124.138924,303.489410 115.289268,304.458771 
	C99.769920,306.158691 84.565140,309.531403 71.048782,319.588867 
	C59.966412,325.794373 51.132591,333.445953 43.451069,342.836700 
	C28.967085,360.543457 21.582729,380.232422 21.596439,403.317444 
	C21.768785,693.531799 21.708117,983.746338 21.694843,1273.960815 
	C21.694630,1278.622437 21.541376,1283.284058 21.191963,1288.183838 
	C21.217073,1288.961426 21.509760,1289.500854 21.989452,1290.808594 
	C29.404993,1328.417236 51.745255,1352.567139 86.205627,1367.399536 
	C109.887856,1376.537598 133.878937,1376.448364 158.906006,1375.444702 
	C173.383682,1375.668213 186.942520,1375.780273 200.500534,1375.717773 
	C220.993240,1375.623291 241.485382,1375.407349 262.885376,1375.435913 
	C270.927856,1375.830688 278.062683,1376.032471 285.722656,1376.249146 
	C285.722656,1381.515503 285.722656,1385.476929 285.722656,1389.438354 
	C285.722382,1486.590454 285.646637,1583.742554 285.863892,1680.894165 
	C285.881470,1688.738892 287.004669,1696.838867 289.165253,1704.375488 
	C297.456909,1733.298462 316.980652,1752.975708 343.148193,1766.287964 
	C351.866089,1770.722900 361.183655,1774.700928 371.612885,1774.677979 
	C371.726532,1775.123047 372.000000,1776.000000 372.000000,1776.000000 
	C248.717819,1776.000000 125.435646,1776.000000 2.000000,1776.000000 
	C2.000000,1231.277222 2.000000,686.554565 2.513765,140.945206 
	C3.708937,140.129227 4.390342,140.199860 5.318455,141.036530 
	C10.061487,168.592651 24.601631,189.569901 44.639214,206.810196 
	C53.020054,214.021057 61.514500,221.782654 73.284935,225.329376 
	C89.666222,233.431992 106.357971,237.435730 124.880730,237.422028 
	C131.151001,237.560440 136.541626,237.512268 142.438080,237.545837 
	C143.448990,237.193542 143.954102,236.759506 145.287903,236.310379 
	C155.403534,234.036530 164.690475,231.777771 174.679199,229.442719 
	C187.463226,225.206528 198.078644,218.411194 207.926529,210.497925 
	C242.655991,182.591034 256.758057,146.152374 251.623444,102.196815 
	C250.787491,95.040649 248.621613,87.936783 246.278931,81.079140 
	C239.452087,61.095112 226.587158,45.084972 210.847824,31.615650 
	C199.011871,21.486732 185.893311,12.902317 169.629471,9.048306 
	C162.058319,6.370953 155.029160,4.185476 148.000000,2.000000 
	C1364.438599,2.000000 2580.877197,2.000000 3798.000000,2.000000 
	C3798.000000,264.055664 3798.000000,526.111938 3797.609863,789.012024 
	C3797.219482,789.855835 3796.425537,789.858276 3796.280273,788.972229 
	C3794.827393,776.563721 3793.734619,765.011902 3792.167969,753.524719 
	C3788.520996,726.783813 3781.392578,700.837646 3772.534180,675.448303 
	C3763.239014,648.807190 3752.140869,622.923584 3738.413574,598.120972 
	C3724.689453,573.323792 3709.474854,549.516296 3692.546631,526.909607 
	C3675.832764,504.589203 3656.442383,484.515930 3636.492188,464.972870 
	C3614.838379,443.761078 3591.641602,424.510101 3566.523682,407.646393 
	C3552.758545,398.404907 3538.292725,390.206940 3523.750977,380.995148 
	C3514.492432,376.039307 3505.301514,372.169861 3496.820557,367.110504 
	C3472.956787,352.874756 3447.107422,343.308380 3421.080811,334.188263 
	C3389.362061,323.073547 3356.729004,315.381775 3323.511719,310.471619 
	C3308.454346,308.245850 3293.177246,307.506958 3277.165039,305.961975 
	C3272.397705,305.291443 3268.477783,304.405579 3264.531494,304.266602 
	C3218.939697,302.660950 3173.481934,303.941254 3128.464600,312.037231 
	C3113.527344,314.723602 3098.780273,318.468231 3083.144531,321.753601 
	C3034.056396,333.534363 2988.487549,352.290375 2944.807373,375.723480 
	C2934.080322,381.478241 2924.060303,388.551270 2913.006836,395.182068 
	C2867.962158,423.478149 2828.381836,457.079285 2793.768066,496.678955 
	C2761.402588,533.706848 2734.206787,573.999512 2712.626465,618.204956 
	C2695.642334,652.995300 2682.447998,689.038391 2674.125244,726.860046 
	C2666.029541,763.647644 2661.499512,800.885132 2661.946289,838.529236 
	C2662.202148,860.076416 2664.030273,881.634155 2665.868408,903.125732 
	C2668.135986,929.639832 2673.689453,955.669800 2681.044189,981.158020 
	C2692.705566,1021.572021 2709.909668,1059.713257 2730.915039,1096.178467 
	C2750.893066,1130.860352 2774.465332,1162.919067 2801.650635,1192.180054 
	C2833.463135,1226.421265 2868.884766,1256.566650 2908.533936,1281.500000 
	C2915.788086,1286.061768 2923.676270,1289.615479 2931.433594,1294.227539 
	C2932.298584,1295.523682 2932.889404,1296.421387 2933.721191,1296.902588 
	C2974.128906,1320.273193 3016.653564,1338.741211 3061.467529,1351.866821 
	C3088.544922,1359.797485 3116.087891,1365.600830 3144.661621,1369.793213 
	C3146.215576,1369.858276 3147.107910,1369.809082 3148.768555,1369.924561 
	C3151.628174,1370.100586 3153.718994,1370.111694 3156.442139,1370.655396 
	C3183.490479,1372.723145 3209.892822,1375.051880 3236.327637,1375.513184 
	C3253.779785,1375.817749 3271.269531,1373.276123 3288.758789,1372.298340 
	C3315.618652,1370.796509 3341.916504,1365.943115 3368.750732,1359.597412 
	C3375.885498,1357.956299 3382.270752,1356.365356 3388.621094,1354.645630 
	C3420.695801,1345.958740 3451.951904,1334.907837 3481.671631,1320.044922 
	C3501.494141,1310.131226 3520.637207,1298.858276 3540.739746,1287.962402 
	C3558.731445,1276.003052 3576.819336,1265.232788 3593.248291,1252.347534 
	C3627.281738,1225.655762 3658.472412,1195.858276 3685.346680,1161.773926 
	C3717.414307,1121.102539 3744.106201,1077.281372 3763.345703,1029.071777 
	C3781.180908,984.381042 3793.334229,938.340759 3796.821777,890.142395 
	C3797.218994,890.143738 3798.000000,890.000000 3798.000000,890.000000 
M2913.707275,1751.701416 
	C2920.972656,1751.228638 2928.267090,1751.022339 2935.498779,1750.237671 
	C2969.007568,1746.602295 2995.862793,1730.999390 3016.316895,1704.403564 
	C3030.447754,1686.030029 3039.542480,1665.194824 3039.954834,1642.000122 
	C3040.765381,1596.388916 3040.269531,1550.753418 3040.166504,1505.128296 
	C3040.144775,1495.587524 3034.045166,1488.026123 3025.593262,1486.082397 
	C3015.400391,1483.738037 3005.331055,1488.174438 3001.608643,1497.484497 
	C3000.070312,1501.332031 2999.839600,1505.891968 2999.826904,1510.130493 
	C2999.705078,1550.427002 2999.566895,1590.725342 2999.819824,1631.020630 
	C3000.024902,1663.637817 2978.844482,1695.785034 2945.488525,1706.701538 
	C2933.651855,1710.575317 2921.878174,1709.759644 2908.471191,1709.885864 
	C2892.718994,1707.079468 2878.509766,1700.771484 2867.063721,1689.561279 
	C2850.167969,1673.013184 2841.582520,1652.814697 2841.715820,1628.876587 
	C2841.941895,1588.265015 2841.819336,1547.651367 2841.754395,1507.038696 
	C2841.738281,1497.065430 2836.600342,1489.284790 2828.729736,1486.646606 
	C2819.635010,1483.598389 2810.358887,1485.949707 2805.039062,1494.040649 
	C2802.709961,1497.583130 2801.934082,1502.706177 2801.911621,1507.119019 
	C2801.691406,1550.726562 2801.665527,1594.336426 2801.886230,1637.943970 
	C2801.922852,1645.184692 2802.654297,1652.601562 2804.356934,1659.623779 
	C2812.987061,1695.218384 2833.545410,1721.502197 2866.283203,1738.391235 
	C2880.711670,1745.834961 2895.979736,1749.571655 2913.707275,1751.701416 
M3431.722412,1626.177734 
	C3431.645264,1620.125000 3431.568115,1614.072388 3431.539795,1607.039551 
	C3431.299805,1606.390259 3430.869873,1605.911499 3430.244629,1603.902588 
	C3429.457031,1587.008667 3424.661865,1571.217285 3416.371338,1556.596069 
	C3389.453857,1509.123535 3349.293457,1484.419922 3292.137939,1485.852905 
	C3265.512207,1485.828369 3238.885254,1485.919312 3212.261230,1485.692505 
	C3206.120361,1485.640259 3201.489258,1487.705688 3197.201660,1491.971680 
	C3191.863770,1497.282227 3191.760498,1503.782837 3191.761475,1510.488892 
	C3191.769531,1558.748779 3191.765381,1607.008789 3191.766846,1655.268677 
	C3191.767578,1679.897827 3192.127686,1704.534302 3191.618896,1729.152954 
	C3191.374756,1740.967285 3200.363037,1751.594238 3212.153320,1751.663696 
	C3240.761719,1751.832275 3269.373535,1751.445557 3299.695557,1751.653931 
	C3323.970947,1750.911133 3346.917969,1745.423340 3367.625732,1732.269531 
	C3404.984131,1708.539062 3426.878906,1675.212036 3431.176514,1629.910645 
	C3431.305664,1629.269165 3431.434814,1628.627686 3431.722412,1626.177734 
M2498.291748,1489.697754 
	C2475.681152,1495.205078 2456.797852,1507.072632 2441.275391,1524.130981 
	C2422.524658,1544.736694 2411.106934,1569.141968 2410.487061,1596.999023 
	C2409.494141,1641.634888 2410.154053,1686.309204 2410.268066,1730.967041 
	C2410.298828,1743.004028 2419.480225,1751.873779 2431.155518,1751.762939 
	C2442.278809,1751.657349 2450.161865,1743.019531 2450.205811,1730.685303 
	C2450.270020,1712.688965 2450.199219,1694.692261 2450.244141,1676.695801 
	C2450.252197,1673.449707 2450.540039,1670.204346 2450.737549,1666.163452 
	C2468.245850,1665.865845 2485.127930,1665.578979 2503.849365,1665.650269 
	C2538.928711,1666.171997 2574.033203,1665.294312 2609.776855,1666.129150 
	C2609.776855,1670.834351 2609.776855,1674.120605 2609.777100,1677.406860 
	C2609.778076,1695.708862 2610.091797,1714.018311 2609.652832,1732.309692 
	C2609.420410,1742.003662 2614.574707,1746.946899 2622.533691,1750.255493 
	C2630.542725,1753.585205 2637.457275,1751.373657 2643.565674,1745.762085 
	C2648.587158,1741.149414 2649.892822,1735.335815 2649.865723,1728.633057 
	C2649.692383,1685.707275 2649.966309,1642.779297 2649.691162,1599.854614 
	C2649.569824,1580.935303 2644.385742,1563.033569 2635.017090,1546.675781 
	C2620.125000,1520.675049 2598.845703,1501.757690 2570.186768,1492.054932 
	C2547.070557,1484.228516 2523.552734,1482.907349 2498.291748,1489.697754 
M3579.066650,1500.308594 
	C3578.942627,1500.500977 3578.674072,1500.745117 3578.720947,1500.876343 
	C3578.867188,1501.284790 3579.132568,1501.650391 3579.650879,1503.878540 
	C3579.694336,1577.206787 3579.738281,1650.535156 3579.783203,1723.863403 
	C3579.784912,1726.863159 3579.675781,1729.869873 3579.838623,1732.861328 
	C3580.327881,1741.850708 3584.989746,1748.025269 3593.482178,1750.347900 
	C3596.954346,1751.297363 3600.676270,1751.721191 3604.285156,1751.726807 
	C3658.615479,1751.811157 3712.945801,1751.818970 3767.275879,1751.716919 
	C3771.204346,1751.709595 3775.303711,1751.261719 3779.026123,1750.081299 
	C3791.337646,1746.177490 3796.386475,1732.169067 3790.066895,1720.840942 
	C3785.156982,1712.039673 3777.124023,1710.196045 3768.037354,1710.199951 
	C3722.706543,1710.219971 3677.375732,1710.205933 3632.044922,1710.203979 
	C3628.485840,1710.203857 3624.927002,1710.204102 3620.171143,1710.204102 
	C3620.485107,1685.591675 3619.623291,1662.202393 3620.803711,1638.228638 
	C3625.618408,1638.228638 3629.258301,1638.228760 3632.897949,1638.228638 
	C3674.895752,1638.227905 3716.895508,1638.001953 3758.889404,1638.395996 
	C3768.566162,1638.486816 3776.458252,1631.951904 3777.968018,1624.220215 
	C3780.154297,1613.023193 3776.343262,1603.852295 3767.195801,1599.927612 
	C3763.989990,1598.552368 3760.115723,1598.289795 3756.544434,1598.280640 
	C3714.880371,1598.174072 3673.215820,1598.225708 3631.551514,1598.190796 
	C3628.031982,1598.187744 3624.512695,1597.862671 3620.930176,1597.684204 
	C3620.930176,1573.469604 3620.930176,1550.333496 3620.930176,1526.248291 
	C3625.210449,1526.248291 3628.810547,1526.248657 3632.410645,1526.248291 
	C3677.074951,1526.244507 3721.739014,1526.249023 3766.403320,1526.219360 
	C3769.728760,1526.217163 3773.109375,1526.306030 3776.368896,1525.770996 
	C3784.981445,1524.357666 3791.649658,1517.116943 3792.250977,1508.959229 
	C3793.065186,1497.911011 3788.398438,1489.490601 3779.294678,1486.748291 
	C3775.886230,1485.721558 3772.066895,1485.816162 3768.434570,1485.812744 
	C3713.770996,1485.760986 3659.104980,1486.031250 3604.445312,1485.578613 
	C3592.631348,1485.480957 3584.449463,1489.154907 3579.066650,1500.308594 
M2199.793457,1598.405884 
	C2170.810547,1598.342285 2141.827393,1598.298340 2112.844482,1598.195312 
	C2108.185547,1598.178711 2103.487305,1598.234131 2098.875977,1597.682251 
	C2079.508789,1595.364380 2065.269775,1578.911987 2066.775146,1559.899414 
	C2068.471436,1538.479004 2083.368408,1526.259033 2105.110840,1526.250977 
	C2145.090332,1526.236084 2185.069580,1526.254639 2225.049072,1526.225220 
	C2228.372559,1526.222778 2231.763672,1526.338013 2235.007568,1525.755249 
	C2246.123535,1523.758301 2252.809326,1514.468018 2251.841553,1503.450806 
	C2251.059814,1494.548828 2241.761963,1485.273071 2231.653076,1485.445068 
	C2187.355469,1486.198853 2143.037109,1485.853271 2098.727051,1485.719238 
	C2082.685791,1485.670654 2068.604004,1491.372925 2056.411377,1500.957886 
	C2036.165771,1516.873047 2026.001221,1537.748169 2026.027588,1564.101807 
	C2026.066650,1603.274902 2062.131348,1639.603516 2100.686523,1638.406494 
	C2128.978027,1637.528076 2157.321533,1638.469727 2185.636475,1638.134399 
	C2200.250488,1637.961304 2211.027588,1645.039429 2219.323975,1655.675415 
	C2226.329590,1664.656616 2225.438965,1675.744019 2222.857178,1686.338867 
	C2219.173584,1701.456543 2201.649170,1710.400146 2188.573486,1710.319580 
	C2142.931885,1710.038452 2097.287354,1710.112793 2051.645264,1710.340820 
	C2046.499390,1710.366455 2040.882080,1711.240967 2036.325928,1713.455444 
	C2027.908813,1717.546509 2024.297119,1727.440186 2026.596313,1736.505981 
	C2028.865479,1745.452637 2037.630005,1751.735229 2048.682861,1751.755249 
	C2095.991943,1751.841309 2143.302979,1752.039551 2190.609375,1751.676025 
	C2212.658203,1751.506592 2231.948975,1742.609741 2246.127197,1726.269043 
	C2270.781738,1697.854370 2272.787354,1661.861206 2251.656006,1630.478149 
	C2239.710693,1612.737793 2222.103516,1603.223267 2199.793457,1598.405884 
M2979.144775,1454.474365 
	C2971.718750,1438.518555 2957.220703,1434.108032 2945.794922,1445.069580 
	C2928.505371,1461.656860 2911.649658,1478.707642 2894.945801,1495.888550 
	C2887.337158,1503.715088 2888.277100,1514.641602 2895.404785,1522.908447 
	C2902.021729,1530.582520 2916.770264,1531.108276 2924.656982,1522.894043 
	C2940.559082,1506.330566 2957.001465,1490.283813 2973.297363,1474.101074 
	C2978.409180,1469.024780 2980.305908,1462.990845 2979.144775,1454.474365 
z"/>
<path fill="#8398BF" opacity="1.000000" stroke="none" 
	d="
M1473.563477,829.359253 
	C1473.271484,790.984558 1478.379639,753.262451 1487.681396,716.103821 
	C1498.455322,673.064392 1514.401733,632.071838 1536.055908,593.244934 
	C1557.041138,555.617615 1581.569214,520.642029 1611.302246,489.433197 
	C1622.041992,478.160461 1633.330444,467.410522 1645.741699,456.277344 
	C1651.112061,457.875244 1651.767578,461.423462 1651.977539,465.189148 
	C1652.660278,477.431183 1653.843384,489.671295 1653.911255,501.917267 
	C1654.252930,563.478394 1653.498047,625.042358 1655.907227,686.590149 
	C1657.533081,728.128052 1655.365479,769.682434 1657.554321,811.303223 
	C1660.348511,864.430054 1656.928711,917.720886 1659.687500,970.975769 
	C1662.285156,1021.121765 1658.977173,1071.392334 1661.622192,1121.662476 
	C1664.400269,1174.461914 1660.823730,1227.413452 1663.666870,1280.340576 
	C1666.377808,1330.811768 1664.101318,1381.426270 1665.453979,1432.019775 
	C1668.007080,1527.512451 1667.330933,1623.091553 1668.005615,1718.634644 
	C1668.038574,1723.297607 1668.152954,1727.960205 1668.229248,1732.622925 
	C1662.254761,1744.166138 1651.787720,1751.249268 1641.811157,1758.657349 
	C1629.729248,1767.628784 1615.717163,1772.229370 1600.515381,1775.454834 
	C1586.624756,1776.000000 1573.249390,1776.000000 1558.937012,1776.000000 
	C1554.962891,1774.903442 1551.985840,1773.583984 1548.879028,1772.745361 
	C1518.151367,1764.449829 1496.162231,1745.263306 1481.477661,1717.617920 
	C1477.816040,1710.724609 1475.898438,1702.643188 1474.517212,1694.870239 
	C1472.961182,1686.113403 1472.307617,1677.088379 1472.303955,1668.179565 
	C1472.193848,1392.411377 1472.211670,1116.643188 1472.212036,840.875000 
	C1472.212036,838.543823 1472.242920,836.212585 1472.704346,832.602295 
	C1473.287231,830.668518 1473.425293,830.013855 1473.563477,829.359253 
z"/>
<path fill="#B57EB5" opacity="1.000000" stroke="none" 
	d="
M3524.143066,381.538391 
	C3538.292725,390.206940 3552.758545,398.404907 3566.523682,407.646393 
	C3591.641602,424.510101 3614.838379,443.761078 3636.492188,464.972870 
	C3656.442383,484.515930 3675.832764,504.589203 3692.546631,526.909607 
	C3709.474854,549.516296 3724.689453,573.323792 3738.413574,598.120972 
	C3752.140869,622.923584 3763.239014,648.807190 3772.534180,675.448303 
	C3781.392578,700.837646 3788.520996,726.783813 3792.167969,753.524719 
	C3793.734619,765.011902 3794.827393,776.563721 3796.157227,789.781921 
	C3796.785889,794.985107 3797.393066,798.492554 3798.000000,802.000000 
	C3798.000000,826.708435 3798.000000,851.416931 3797.461914,877.620789 
	C3796.757568,882.791138 3796.591064,886.466125 3796.424805,890.141052 
	C3793.334229,938.340759 3781.180908,984.381042 3763.345703,1029.071777 
	C3744.106201,1077.281372 3717.414307,1121.102539 3685.346680,1161.773926 
	C3658.472412,1195.858276 3627.281738,1225.655762 3593.248291,1252.347534 
	C3576.819336,1265.232788 3558.731445,1276.003052 3540.401367,1287.178467 
	C3538.938477,1283.376831 3538.160645,1280.136963 3538.063721,1276.876709 
	C3537.856201,1269.886719 3538.052490,1262.885742 3537.991699,1255.890137 
	C3537.338135,1180.683228 3536.709717,1105.475830 3535.912842,1030.270508 
	C3535.854004,1024.702637 3534.554443,1019.147949 3533.958984,1012.922302 
	C3552.120361,983.007202 3566.222656,952.156921 3575.122314,918.768555 
	C3581.840088,893.565918 3584.158447,867.969055 3585.634033,842.193054 
	C3586.065674,834.656494 3585.039062,826.983765 3584.152832,819.435547 
	C3582.301758,803.672546 3581.048340,787.754272 3577.839111,772.253906 
	C3571.497559,741.623596 3560.485596,712.567932 3544.726318,685.446289 
	C3537.901855,673.701599 3530.783203,662.127747 3523.856934,649.567993 
	C3523.278809,642.755127 3522.194580,636.859375 3522.076172,630.944458 
	C3521.226074,588.425354 3522.698486,545.911438 3520.351807,503.358978 
	C3518.576416,471.167847 3520.006104,438.800232 3519.995605,406.511169 
	C3519.992920,397.952728 3519.021729,389.242096 3524.143066,381.538391 
z"/>
<path fill="#5BADC7" opacity="1.000000" stroke="none" 
	d="
M372.937073,1776.000000 
	C372.000000,1776.000000 371.726532,1775.123047 372.482422,1774.576416 
	C379.585358,1773.500610 378.004822,1768.589722 377.934204,1764.953735 
	C377.386017,1736.727417 376.690002,1708.503784 375.994568,1680.280396 
	C374.913544,1636.408691 376.658966,1592.554321 374.431305,1548.625122 
	C371.687469,1494.516968 375.091736,1440.252075 372.301208,1386.023804 
	C369.738922,1336.230347 373.005554,1286.317261 370.386597,1236.400757 
	C367.635071,1183.958252 371.083649,1131.361572 368.331055,1078.791748 
	C365.671844,1028.005981 368.568481,977.091064 366.480164,926.173645 
	C364.082855,867.722107 366.830444,809.117188 364.185059,750.588074 
	C363.073364,725.992065 364.256287,701.300598 363.934265,676.658569 
	C363.543610,646.765625 362.544006,616.880615 362.134308,586.987732 
	C362.076538,582.772827 360.122742,580.215454 357.725769,577.484375 
	C367.625824,562.282959 376.848846,546.583435 387.581146,531.994202 
	C404.627930,508.821350 423.854218,487.415253 444.218384,467.069000 
	C445.370087,465.918304 446.750397,464.996460 449.478088,464.020325 
	C455.488800,467.358826 455.917786,472.246674 455.991516,477.241577 
	C456.668915,523.131042 457.137939,569.024597 458.055725,614.909180 
	C458.940247,659.130981 457.215668,703.327820 459.581757,747.603943 
	C462.420471,800.723694 458.823517,854.004822 461.671631,907.256287 
	C464.352875,957.388550 460.973999,1007.656494 463.616333,1057.920532 
	C466.391510,1110.711670 462.882355,1163.656494 465.666107,1216.575684 
	C468.355865,1267.708374 465.643433,1318.972412 467.504761,1370.236206 
	C470.123993,1442.374146 469.337189,1514.635986 469.992371,1586.844971 
	C470.049805,1593.174316 469.915375,1599.505981 470.013519,1605.834351 
	C470.720154,1651.389648 471.463837,1696.944336 472.195801,1742.499268 
	C457.123413,1760.406616 437.363617,1770.003784 414.452148,1775.407471 
	C400.624725,1776.000000 387.249420,1776.000000 372.937073,1776.000000 
z"/>
<path fill="#3EBCCC" opacity="1.000000" stroke="none" 
	d="
M173.977417,229.519012 
	C164.690475,231.777771 155.403534,234.036530 144.795898,236.308777 
	C142.807938,236.496262 142.293625,236.876862 141.932251,237.464081 
	C136.541626,237.512268 131.151001,237.560440 124.878433,236.586670 
	C123.331451,229.011963 122.153870,222.464981 122.080185,215.905609 
	C121.286697,145.268936 120.667122,74.630310 120.000824,3.992214 
	C119.994560,3.328200 120.000015,2.664074 120.000000,2.000000 
	C128.713806,2.000000 137.427597,2.000000 147.070709,2.000000 
	C155.029160,4.185476 162.058319,6.370953 169.577393,9.973768 
	C170.711151,18.292753 171.766724,25.184484 171.933228,32.097626 
	C173.181351,83.919075 169.863205,135.785645 173.837448,187.599335 
	C174.903244,201.494385 173.984909,215.541626 173.977417,229.519012 
z"/>
<path fill="#33C2CF" opacity="1.000000" stroke="none" 
	d="
M72.790298,224.788239 
	C61.514500,221.782654 53.020054,214.021057 44.639214,206.810196 
	C24.601631,189.569901 10.061487,168.592651 5.399716,140.354584 
	C4.156182,136.604401 3.078092,134.302200 2.000001,132.000000 
	C2.000000,121.955818 2.000000,111.911629 2.755070,100.863190 
	C4.302969,98.198189 5.243659,96.590622 5.863388,94.867615 
	C8.760554,86.812714 10.764748,78.324242 14.559430,70.725487 
	C26.233675,47.348095 44.083687,29.811142 67.851288,17.693752 
	C68.931976,17.121433 69.462349,16.629293 70.391388,15.846476 
	C70.790054,15.555799 71.749260,15.324204 71.893707,16.195301 
	C72.691978,21.290648 73.782692,25.499691 73.930344,29.741560 
	C75.084236,62.891369 73.165169,96.031204 75.564285,129.254684 
	C77.642166,158.029785 76.000443,187.073685 75.994255,215.998779 
	C75.993546,219.307846 76.386620,222.780716 72.790298,224.788239 
z"/>
<path fill="#39BFCE" opacity="1.000000" stroke="none" 
	d="
M73.284935,225.329376 
	C76.386620,222.780716 75.993546,219.307846 75.994255,215.998779 
	C76.000443,187.073685 77.642166,158.029785 75.564285,129.254684 
	C73.165169,96.031204 75.084236,62.891369 73.930344,29.741560 
	C73.782692,25.499691 72.691978,21.290648 72.423233,15.745539 
	C82.367165,11.381018 91.949028,8.406590 101.468147,5.243382 
	C103.752449,4.484306 105.828285,3.097897 108.000000,2.000000 
	C111.428719,2.000000 114.857430,2.000000 119.143074,2.000000 
	C120.000015,2.664074 119.994560,3.328200 120.000824,3.992214 
	C120.667122,74.630310 121.286697,145.268936 122.080185,215.905609 
	C122.153870,222.464981 123.331451,229.011963 123.998779,236.400055 
	C106.357971,237.435730 89.666222,233.431992 73.284935,225.329376 
z"/>
<path fill="#FFFFFF" opacity="1.000000" stroke="none" 
	d="
M107.062683,2.000000 
	C105.828285,3.097897 103.752449,4.484306 101.468147,5.243382 
	C91.949028,8.406590 82.367165,11.381018 72.278793,14.874442 
	C71.749260,15.324204 70.790054,15.555799 69.832962,15.899712 
	C68.350906,16.753727 67.825935,17.263828 67.300964,17.773930 
	C44.083687,29.811142 26.233675,47.348095 14.559430,70.725487 
	C10.764748,78.324242 8.760554,86.812714 5.863388,94.867615 
	C5.243659,96.590622 4.302969,98.198189 2.755070,99.929466 
	C2.000000,67.474075 2.000000,34.948151 2.000000,2.000000 
	C36.707314,2.000000 71.416344,2.000000 107.062683,2.000000 
z"/>
<path fill="#CBF0F3" opacity="1.000000" stroke="none" 
	d="
M2.000001,132.799988 
	C3.078092,134.302200 4.156182,136.604401 5.153009,139.588562 
	C4.390342,140.199860 3.708937,140.129227 2.513765,140.029297 
	C2.000000,137.866653 2.000000,135.733322 2.000001,132.799988 
z"/>
<path fill="#EADFED" opacity="1.000000" stroke="none" 
	d="
M3796.821777,890.142395 
	C3796.591064,886.466125 3796.757568,882.791138 3797.461914,878.558105 
	C3798.000000,881.428711 3798.000000,884.857422 3798.000000,889.143066 
	C3798.000000,890.000000 3797.218994,890.143738 3796.821777,890.142395 
z"/>
<path fill="#EADFED" opacity="1.000000" stroke="none" 
	d="
M3798.000000,801.143066 
	C3797.393066,798.492554 3796.785889,794.985107 3796.302246,790.667969 
	C3796.425537,789.858276 3797.219482,789.855835 3797.609863,789.927917 
	C3798.000000,793.428711 3798.000000,796.857422 3798.000000,801.143066 
z"/>
<path fill="#988DBB" opacity="1.000000" stroke="none" 
	d="
M2327.990967,376.527863 
	C2364.448486,396.137085 2397.698730,420.199554 2428.933350,447.364380 
	C2475.015625,487.441956 2512.685791,534.277283 2543.187012,586.946472 
	C2567.296875,628.579956 2585.282471,672.763855 2596.384521,719.694580 
	C2602.428711,745.245422 2607.283936,770.968323 2608.176514,797.243713 
	C2609.044678,822.804688 2610.711670,848.462524 2609.409668,873.944092 
	C2607.460693,912.089905 2600.666992,949.663269 2589.532227,986.321228 
	C2582.767090,1008.592712 2574.211914,1030.146851 2564.599609,1051.369751 
	C2551.238525,1080.869507 2535.028076,1108.698486 2516.384521,1135.029663 
	C2504.723145,1151.499878 2491.433594,1166.823608 2478.739990,1182.553101 
	C2474.998291,1187.189941 2470.896729,1191.550781 2466.792480,1195.879028 
	C2429.711914,1234.984253 2387.906738,1268.125488 2340.631348,1294.429932 
	C2339.330078,1256.577271 2338.525879,1219.445801 2338.034424,1182.310303 
	C2337.397705,1134.210449 2339.466064,1086.072754 2335.986816,1038.013428 
	C2335.763672,1034.930298 2337.220703,1031.008423 2332.540039,1029.384033 
	C2353.547363,1000.848816 2369.909424,970.450378 2380.848877,937.488708 
	C2396.017334,891.783569 2399.881592,844.694092 2393.577881,796.998535 
	C2387.663330,752.245728 2371.770996,710.941406 2347.824951,672.746216 
	C2341.325195,662.378845 2334.289551,652.347534 2328.327148,641.979675 
	C2333.614990,639.591064 2331.990479,635.421875 2331.906738,632.092407 
	C2331.432861,613.241638 2330.363281,594.402710 2330.078613,575.551025 
	C2329.742920,553.302979 2330.214844,531.043457 2329.954590,508.793396 
	C2329.438721,464.703247 2328.660645,420.616211 2327.990967,376.527863 
z"/>
<path fill="#A189B9" opacity="1.000000" stroke="none" 
	d="
M2931.271729,1293.634766 
	C2923.676270,1289.615479 2915.788086,1286.061768 2908.533936,1281.500000 
	C2868.884766,1256.566650 2833.463135,1226.421265 2801.650635,1192.180054 
	C2774.465332,1162.919067 2750.893066,1130.860352 2730.915039,1096.178467 
	C2709.909668,1059.713257 2692.705566,1021.572021 2681.044189,981.158020 
	C2673.689453,955.669800 2668.135986,929.639832 2665.868408,903.125732 
	C2664.030273,881.634155 2662.202148,860.076416 2661.946289,838.529236 
	C2661.499512,800.885132 2666.029541,763.647644 2674.125244,726.860046 
	C2682.447998,689.038391 2695.642334,652.995300 2712.626465,618.204956 
	C2734.206787,573.999512 2761.402588,533.706848 2793.768066,496.678955 
	C2828.381836,457.079285 2867.962158,423.478149 2913.080322,396.044495 
	C2914.048828,400.014679 2913.217285,402.542542 2909.689697,403.741821 
	C2899.794922,407.105896 2895.819824,414.397583 2895.979248,424.530304 
	C2896.579834,462.734863 2896.008057,500.922668 2897.588135,539.156982 
	C2899.374023,582.366516 2897.851807,625.707581 2898.124268,668.989197 
	C2898.178955,677.705139 2899.829102,686.411011 2900.739258,695.081360 
	C2905.010254,694.649109 2908.270996,694.319092 2911.405518,694.625244 
	C2909.553223,698.236694 2907.826904,701.212097 2905.794434,703.574463 
	C2904.145264,702.307251 2902.802246,701.653015 2901.458984,700.998718 
	C2901.013672,702.142578 2900.040283,703.385254 2900.232178,704.409790 
	C2900.647705,706.628357 2901.659668,708.735229 2902.378906,711.619019 
	C2897.645020,725.450623 2892.285156,738.355164 2888.413086,751.691589 
	C2879.868896,781.120850 2874.959229,811.142456 2876.496338,842.480896 
	C2876.524170,843.343262 2876.604736,843.683594 2876.532227,844.919678 
	C2876.510498,851.866577 2876.642090,857.917847 2876.760254,864.404785 
	C2876.997559,865.397644 2877.397949,865.809326 2877.917236,866.975830 
	C2878.003906,871.845764 2877.774658,875.861389 2878.292725,879.778137 
	C2882.742432,913.418823 2891.795166,945.778931 2907.091064,976.107483 
	C2914.822021,991.436462 2924.000732,1006.035339 2932.164551,1021.798706 
	C2931.202881,1027.183472 2930.049316,1031.737793 2930.082275,1036.283447 
	C2930.633789,1112.763794 2931.336670,1189.242920 2931.993652,1265.722412 
	C2932.042236,1271.381226 2932.086914,1277.042603 2931.968750,1282.699341 
	C2931.892334,1286.347656 2931.514404,1289.989868 2931.271729,1293.634766 
z"/>
<path fill="#7C9CC1" opacity="1.000000" stroke="none" 
	d="
M1152.166138,383.411316 
	C1176.917603,397.197083 1200.376587,413.003052 1221.970825,431.256866 
	C1241.243896,447.548676 1260.358276,464.241272 1277.817505,482.414368 
	C1302.446167,508.049896 1324.103516,536.281921 1343.149170,566.403015 
	C1377.417603,620.598511 1401.156372,679.073425 1413.540771,741.987000 
	C1416.735962,758.218323 1418.142578,774.808472 1420.203735,791.254761 
	C1423.649658,818.749756 1423.050903,846.409485 1421.524170,873.912476 
	C1419.292480,914.118103 1412.092407,953.622070 1399.821045,992.074890 
	C1390.608398,1020.943359 1379.248413,1048.949951 1364.987793,1075.710205 
	C1348.384766,1106.866089 1329.113647,1136.269043 1306.979614,1163.821655 
	C1289.273315,1185.862671 1270.143799,1206.585938 1249.122681,1225.410156 
	C1229.352539,1243.114014 1208.867920,1260.053345 1185.014648,1274.010498 
	C1180.426514,1267.249023 1188.773560,1269.234131 1190.111206,1265.646240 
	C1189.773804,1255.752075 1188.331055,1245.908325 1188.094360,1236.035767 
	C1186.827515,1183.163818 1189.452637,1130.278442 1186.323242,1077.373901 
	C1184.536499,1047.164917 1186.030884,1016.763672 1185.980225,986.449158 
	C1185.965576,977.678589 1185.858154,977.678772 1177.983887,975.239807 
	C1187.277710,955.456726 1194.640869,935.626038 1199.423462,915.112915 
	C1203.399170,898.061279 1206.410400,880.547363 1207.395386,863.099731 
	C1208.476807,843.947327 1207.368530,824.595764 1206.109741,805.403381 
	C1203.842285,770.832520 1193.926636,738.140991 1178.524048,707.278748 
	C1169.793091,689.784424 1159.445190,673.096985 1150.631348,655.868103 
	C1155.637451,653.255066 1153.990479,649.137085 1153.908569,645.789551 
	C1152.973389,607.598633 1154.191528,569.426514 1152.537109,531.180542 
	C1150.410156,482.010773 1152.113037,432.675385 1152.166138,383.411316 
z"/>
<path fill="#50B3C9" opacity="1.000000" stroke="none" 
	d="
M357.190979,577.935974 
	C360.122742,580.215454 362.076538,582.772827 362.134308,586.987732 
	C362.544006,616.880615 363.543610,646.765625 363.934265,676.658569 
	C364.256287,701.300598 363.073364,725.992065 364.185059,750.588074 
	C366.830444,809.117188 364.082855,867.722107 366.480164,926.173645 
	C368.568481,977.091064 365.671844,1028.005981 368.331055,1078.791748 
	C371.083649,1131.361572 367.635071,1183.958252 370.386597,1236.400757 
	C373.005554,1286.317261 369.738922,1336.230347 372.301208,1386.023804 
	C375.091736,1440.252075 371.687469,1494.516968 374.431305,1548.625122 
	C376.658966,1592.554321 374.913544,1636.408691 375.994568,1680.280396 
	C376.690002,1708.503784 377.386017,1736.727417 377.934204,1764.953735 
	C378.004822,1768.589722 379.585358,1773.500610 372.368774,1774.131226 
	C361.183655,1774.700928 351.866089,1770.722900 343.148193,1766.287964 
	C316.980652,1752.975708 297.456909,1733.298462 289.165253,1704.375488 
	C287.004669,1696.838867 285.881470,1688.738892 285.863892,1680.894165 
	C285.646637,1583.742554 285.722382,1486.590454 285.722656,1389.438354 
	C285.722656,1385.476929 285.722656,1381.515503 285.722656,1376.249146 
	C278.062683,1376.032471 270.927856,1375.830688 262.888855,1374.554688 
	C260.840820,1316.932373 264.250854,1260.343018 260.195282,1203.804688 
	C259.491791,1193.997681 261.329010,1184.008179 261.992737,1174.103027 
	C269.549835,1173.831787 277.106934,1173.560425 285.723541,1173.250977 
	C285.723541,1168.643555 285.723511,1164.733887 285.723572,1160.824097 
	C285.724548,1051.218262 285.922760,941.611877 285.647369,832.006714 
	C285.498657,772.818909 296.627747,715.819031 317.017181,660.478394 
	C327.565247,631.848999 340.754913,604.453064 357.190979,577.935974 
z"/>
<path fill="#8796BE" opacity="1.000000" stroke="none" 
	d="
M1668.806641,1732.218994 
	C1668.152954,1727.960205 1668.038574,1723.297607 1668.005615,1718.634644 
	C1667.330933,1623.091553 1668.007080,1527.512451 1665.453979,1432.019775 
	C1664.101318,1381.426270 1666.377808,1330.811768 1663.666870,1280.340576 
	C1660.823730,1227.413452 1664.400269,1174.461914 1661.622192,1121.662476 
	C1658.977173,1071.392334 1662.285156,1021.121765 1659.687500,970.975769 
	C1656.928711,917.720886 1660.348511,864.430054 1657.554321,811.303223 
	C1655.365479,769.682434 1657.533081,728.128052 1655.907227,686.590149 
	C1653.498047,625.042358 1654.252930,563.478394 1653.911255,501.917267 
	C1653.843384,489.671295 1652.660278,477.431183 1651.977539,465.189148 
	C1651.767578,461.423462 1651.112061,457.875244 1646.321533,455.969452 
	C1654.065918,448.050964 1662.252808,439.861511 1671.206909,432.621002 
	C1699.075562,410.086090 1728.595703,389.972717 1760.502441,373.497009 
	C1762.536377,372.446747 1764.445312,371.154816 1767.808594,370.289856 
	C1772.901611,373.024780 1774.009521,376.443390 1774.074097,380.819031 
	C1774.608398,416.988739 1775.598633,453.153198 1775.926147,489.324036 
	C1776.260254,526.239685 1775.921631,563.161194 1776.088379,600.079102 
	C1776.112061,605.306030 1777.328247,610.527466 1777.397461,616.076416 
	C1763.457275,627.199707 1754.550903,641.793701 1744.831543,655.446228 
	C1723.527710,685.371277 1709.351074,718.962585 1698.561401,753.919861 
	C1689.188110,784.288086 1686.643066,815.839966 1686.460571,847.295959 
	C1685.847900,952.860413 1686.224121,1058.430542 1686.253784,1163.998535 
	C1686.254517,1166.898315 1686.619141,1169.798096 1686.885864,1173.763062 
	C1691.010742,1173.763062 1694.590576,1173.763062 1698.170288,1173.762939 
	C1728.475342,1173.762451 1758.780396,1173.719116 1789.085327,1173.774780 
	C1813.390137,1173.819336 1837.694580,1173.983765 1861.888184,1174.919312 
	C1861.184814,1179.964966 1860.024292,1184.195190 1860.091187,1188.406006 
	C1860.559692,1217.850220 1859.901855,1247.267090 1861.573853,1276.754028 
	C1863.430054,1309.492554 1861.986694,1342.418213 1861.979980,1375.262451 
	C1857.993530,1375.431763 1854.007202,1375.745605 1850.020630,1375.748535 
	C1799.361084,1375.784790 1748.701538,1375.776489 1698.041992,1375.779419 
	C1694.483154,1375.779663 1690.924316,1375.779541 1686.228760,1375.779541 
	C1686.228760,1380.880371 1686.228882,1384.790039 1686.228882,1388.699829 
	C1686.229248,1485.352905 1686.118286,1582.006226 1686.322754,1678.658813 
	C1686.364502,1698.374146 1681.046265,1716.012695 1668.806641,1732.218994 
z"/>
<path fill="#42BACC" opacity="1.000000" stroke="none" 
	d="
M261.071289,1173.964355 
	C261.329010,1184.008179 259.491791,1193.997681 260.195282,1203.804688 
	C264.250854,1260.343018 260.840820,1316.932373 261.981232,1374.361816 
	C241.485382,1375.407349 220.993240,1375.623291 200.500534,1375.717773 
	C186.942520,1375.780273 173.383682,1375.668213 158.907471,1374.561646 
	C157.141113,1336.261353 158.385437,1299.054077 156.394730,1261.774902 
	C153.664139,1210.640747 157.055145,1159.368286 154.376907,1108.101685 
	C151.618698,1055.304199 155.126785,1002.355103 152.333328,949.431274 
	C149.669373,898.960266 152.884094,848.355164 150.399811,797.753723 
	C147.742081,743.619629 151.049911,689.335083 148.292969,635.087708 
	C145.778198,585.605286 148.357056,536.009583 146.517120,486.406616 
	C144.273697,425.926270 146.731049,365.294617 143.989380,304.763458 
	C186.581253,310.801361 215.362076,334.249390 230.352844,374.306152 
	C233.074219,381.577911 233.086349,389.863586 234.359360,399.042603 
	C234.744080,400.955353 235.118622,401.506744 235.493195,402.058105 
	C235.568634,406.052521 235.709946,410.046906 235.710114,414.041321 
	C235.720535,662.535461 235.719437,911.029663 235.719421,1159.523804 
	C235.719421,1163.798828 235.719406,1168.073975 235.719406,1173.825806 
	C244.406982,1173.825806 252.278397,1173.825806 261.071289,1173.964355 
z"/>
<path fill="#39BFCE" opacity="1.000000" stroke="none" 
	d="
M143.069031,304.574158 
	C146.731049,365.294617 144.273697,425.926270 146.517120,486.406616 
	C148.357056,536.009583 145.778198,585.605286 148.292969,635.087708 
	C151.049911,689.335083 147.742081,743.619629 150.399811,797.753723 
	C152.884094,848.355164 149.669373,898.960266 152.333328,949.431274 
	C155.126785,1002.355103 151.618698,1055.304199 154.376907,1108.101685 
	C157.055145,1159.368286 153.664139,1210.640747 156.394730,1261.774902 
	C158.385437,1299.054077 157.141113,1336.261353 157.988251,1374.372070 
	C133.878937,1376.448364 109.887856,1376.537598 86.507065,1366.614502 
	C86.118042,1361.311523 86.060699,1357.123169 86.001694,1352.934692 
	C85.228325,1298.048706 86.990715,1243.164917 84.264473,1188.259521 
	C81.856873,1139.771729 84.918976,1091.183716 82.397346,1042.580811 
	C79.623703,989.120728 83.157448,935.505493 80.321045,881.920349 
	C77.684792,832.116394 80.702393,782.184021 78.447624,732.247803 
	C75.897987,675.781250 79.557732,619.131714 76.083603,562.603210 
	C75.492027,552.977539 76.078842,543.283691 75.987343,533.622559 
	C75.344414,465.741364 74.698784,397.860077 73.907455,329.980530 
	C73.866272,326.447998 72.487785,322.931061 71.731895,319.406860 
	C84.565140,309.531403 99.769920,306.158691 115.289268,304.458771 
	C124.138924,303.489410 133.188904,304.348877 143.069031,304.574158 
z"/>
<path fill="#64A8C5" opacity="1.000000" stroke="none" 
	d="
M472.801270,1742.168213 
	C471.463837,1696.944336 470.720154,1651.389648 470.013519,1605.834351 
	C469.915375,1599.505981 470.049805,1593.174316 469.992371,1586.844971 
	C469.337189,1514.635986 470.123993,1442.374146 467.504761,1370.236206 
	C465.643433,1318.972412 468.355865,1267.708374 465.666107,1216.575684 
	C462.882355,1163.656494 466.391510,1110.711670 463.616333,1057.920532 
	C460.973999,1007.656494 464.352875,957.388550 461.671631,907.256287 
	C458.823517,854.004822 462.420471,800.723694 459.581757,747.603943 
	C457.215668,703.327820 458.940247,659.130981 458.055725,614.909180 
	C457.137939,569.024597 456.668915,523.131042 455.991516,477.241577 
	C455.917786,472.246674 455.488800,467.358826 450.128906,463.898438 
	C462.841736,451.513428 475.964172,438.826355 489.994995,427.239197 
	C501.665222,417.601532 514.402893,409.256470 527.798340,400.790039 
	C529.952026,403.859344 531.800964,406.455170 531.872437,409.098969 
	C532.733948,440.973236 533.518250,472.852142 533.938660,504.734924 
	C534.250305,528.371826 533.749939,552.019409 534.060120,575.656311 
	C534.495911,608.870789 535.314087,642.080627 536.079773,675.289856 
	C536.147583,678.230896 537.032410,681.153198 537.389648,684.718933 
	C533.799988,692.425354 529.898865,699.315735 527.021240,706.609802 
	C522.323242,718.517944 518.371094,730.718079 513.964050,742.743713 
	C504.499908,768.569092 499.778564,795.232910 499.771912,822.716064 
	C499.744324,936.929077 499.755585,1051.142090 499.794617,1165.355103 
	C499.795502,1167.887817 500.297516,1170.420288 500.687195,1174.099365 
	C518.168091,1174.099365 535.082092,1174.099365 551.997437,1175.030518 
	C552.665771,1194.834229 553.801453,1213.704346 553.907837,1232.580200 
	C554.176025,1280.141113 553.980103,1327.704712 553.970215,1375.267212 
	C536.382996,1375.267212 518.795837,1375.267212 499.759827,1375.267212 
	C499.759827,1380.434326 499.759705,1384.296997 499.759827,1388.159546 
	C499.762360,1482.453369 499.888824,1576.747559 499.672668,1671.040894 
	C499.624084,1692.232788 495.999390,1712.770996 482.934875,1730.426147 
	C479.992249,1734.402466 476.594818,1738.042480 472.801270,1742.168213 
z"/>
<path fill="#31C2CF" opacity="1.000000" stroke="none" 
	d="
M71.048782,319.588867 
	C72.487785,322.931061 73.866272,326.447998 73.907455,329.980530 
	C74.698784,397.860077 75.344414,465.741364 75.987343,533.622559 
	C76.078842,543.283691 75.492027,552.977539 76.083603,562.603210 
	C79.557732,619.131714 75.897987,675.781250 78.447624,732.247803 
	C80.702393,782.184021 77.684792,832.116394 80.321045,881.920349 
	C83.157448,935.505493 79.623703,989.120728 82.397346,1042.580811 
	C84.918976,1091.183716 81.856873,1139.771729 84.264473,1188.259521 
	C86.990715,1243.164917 85.228325,1298.048706 86.001694,1352.934692 
	C86.060699,1357.123169 86.118042,1361.311523 85.874718,1366.285034 
	C51.745255,1352.567139 29.404993,1328.417236 22.002846,1290.268677 
	C21.706003,1288.622314 21.582771,1288.284058 21.459538,1287.945679 
	C21.541376,1283.284058 21.694630,1278.622437 21.694843,1273.960815 
	C21.708117,983.746338 21.768785,693.531799 21.596439,403.317444 
	C21.582729,380.232422 28.967085,360.543457 43.451069,342.836700 
	C51.132591,333.445953 59.966412,325.794373 71.048782,319.588867 
z"/>
<path fill="#769FC2" opacity="1.000000" stroke="none" 
	d="
M1151.674561,382.918335 
	C1152.113037,432.675385 1150.410156,482.010773 1152.537109,531.180542 
	C1154.191528,569.426514 1152.973389,607.598633 1153.908569,645.789551 
	C1153.990479,649.137085 1155.637451,653.255066 1150.108276,655.467163 
	C1146.527344,652.371094 1144.246338,649.519958 1142.027832,646.621033 
	C1125.264282,624.715515 1106.681885,604.621460 1085.067993,587.310547 
	C1063.706665,570.201904 1040.842407,555.789062 1016.285583,543.604675 
	C985.716614,528.437134 953.975220,517.464905 920.402405,511.594391 
	C914.888123,510.630157 909.464722,509.146057 903.999756,506.971069 
	C903.333313,440.054688 902.666443,374.069489 902.000366,308.084320 
	C901.993652,307.420349 901.998291,306.756256 901.997620,306.092224 
	C917.494507,307.545197 933.117615,308.196930 948.462463,310.614868 
	C982.264709,315.941223 1015.487244,323.901459 1047.917114,335.012146 
	C1078.319824,345.428284 1107.261353,358.931122 1134.995605,375.141876 
	C1140.075195,378.110840 1145.771484,380.024567 1151.674561,382.918335 
z"/>
<path fill="#AF81B6" opacity="1.000000" stroke="none" 
	d="
M3523.750977,380.995117 
	C3519.021729,389.242096 3519.992920,397.952728 3519.995605,406.511169 
	C3520.006104,438.800232 3518.576416,471.167847 3520.351807,503.358978 
	C3522.698486,545.911438 3521.226074,588.425354 3522.076172,630.944458 
	C3522.194580,636.859375 3523.278809,642.755127 3523.276367,649.201355 
	C3511.712158,636.892700 3501.554443,623.280212 3489.699707,611.354248 
	C3466.687988,588.204407 3440.789551,568.672729 3412.124023,552.754456 
	C3385.267334,537.840698 3357.236084,525.948975 3327.586670,518.136536 
	C3311.914307,514.006958 3295.874023,511.271759 3280.015625,507.113220 
	C3283.012207,500.149658 3279.985840,493.989960 3279.977051,487.825134 
	C3279.891357,427.241913 3280.777100,366.647491 3278.000000,306.093536 
	C3293.177246,307.506958 3308.454346,308.245850 3323.511719,310.471619 
	C3356.729004,315.381775 3389.362061,323.073547 3421.080811,334.188263 
	C3447.107422,343.308380 3472.956787,352.874756 3496.820557,367.110504 
	C3505.301514,372.169861 3514.492432,376.039307 3523.750977,380.995117 
z"/>
<path fill="#9290BC" opacity="1.000000" stroke="none" 
	d="
M2332.344727,1030.013428 
	C2337.220703,1031.008423 2335.763672,1034.930298 2335.986816,1038.013428 
	C2339.466064,1086.072754 2337.397705,1134.210449 2338.034424,1182.310303 
	C2338.525879,1219.445801 2339.330078,1256.577271 2339.990234,1294.605225 
	C2326.303467,1302.631470 2312.718262,1309.956665 2298.918701,1316.852173 
	C2274.413818,1329.097046 2249.248535,1339.793091 2223.039307,1347.887329 
	C2193.921875,1356.879517 2164.442383,1364.313110 2134.166504,1368.276001 
	C2125.989258,1369.346436 2117.826172,1370.526001 2108.828125,1370.624756 
	C2108.000000,1342.037231 2108.246338,1314.477905 2107.940918,1286.924438 
	C2107.504150,1247.498657 2106.664062,1208.077271 2106.772949,1168.391357 
	C2112.727783,1166.979004 2117.904541,1165.821533 2123.084717,1164.680542 
	C2162.361572,1156.028931 2198.889160,1140.737305 2233.094971,1119.631104 
	C2253.808350,1106.850220 2273.606445,1092.812500 2290.736816,1075.545776 
	C2305.204834,1060.962402 2318.519531,1045.234741 2332.344727,1030.013428 
z"/>
<path fill="#9290BC" opacity="1.000000" stroke="none" 
	d="
M2327.398926,376.118286 
	C2328.660645,420.616211 2329.438721,464.703247 2329.954590,508.793396 
	C2330.214844,531.043457 2329.742920,553.302979 2330.078613,575.551025 
	C2330.363281,594.402710 2331.432861,613.241638 2331.906738,632.092407 
	C2331.990479,635.421875 2333.614990,639.591064 2327.775146,641.643311 
	C2309.693115,620.745850 2290.950195,602.095276 2270.225830,585.321655 
	C2242.607666,562.968323 2212.128418,545.633240 2179.403809,532.097656 
	C2153.820801,521.516113 2127.226562,514.411438 2100.002686,508.754425 
	C2100.671143,498.359833 2101.986816,488.790131 2101.879150,479.236389 
	C2101.539307,449.025787 2100.431641,418.823975 2100.069580,388.613403 
	C2099.742676,361.320648 2100.005127,334.020844 2100.007812,306.724152 
	C2111.816406,307.921021 2123.714600,308.555542 2135.416504,310.422150 
	C2168.152344,315.643890 2200.580078,322.609924 2231.764404,333.926758 
	C2253.422852,341.786652 2274.455811,351.408234 2295.607422,360.612000 
	C2306.192871,365.217987 2316.418457,370.650177 2327.398926,376.118286 
z"/>
<path fill="#8D93BD" opacity="1.000000" stroke="none" 
	d="
M2105.996094,1168.654053 
	C2106.664062,1208.077271 2107.504150,1247.498657 2107.940918,1286.924438 
	C2108.246338,1314.477905 2108.000000,1342.037231 2108.000732,1370.479492 
	C2096.118164,1372.319214 2084.242676,1373.973633 2072.349609,1374.111328 
	C2006.504639,1374.873413 1940.655273,1375.269653 1874.807251,1375.775635 
	C1871.147339,1375.803833 1867.486328,1375.691528 1862.902832,1375.453369 
	C1861.986694,1342.418213 1863.430054,1309.492554 1861.573853,1276.754028 
	C1859.901855,1247.267090 1860.559692,1217.850220 1860.091187,1188.406006 
	C1860.024292,1184.195190 1861.184814,1179.964966 1862.818604,1174.791016 
	C1925.946167,1173.815186 1988.032349,1173.794922 2050.118652,1173.760986 
	C2053.436523,1173.759155 2056.771729,1173.835815 2060.069580,1173.544556 
	C2073.227539,1172.382935 2086.373779,1171.090088 2099.998535,1169.767090 
	C2101.104736,1169.463623 2101.580811,1169.056396 2102.586182,1168.399902 
	C2104.179932,1168.440186 2105.088135,1168.547119 2105.996094,1168.654053 
z"/>
<path fill="#779FC2" opacity="1.000000" stroke="none" 
	d="
M1177.884033,975.969971 
	C1185.858154,977.678772 1185.965576,977.678589 1185.980225,986.449158 
	C1186.030884,1016.763672 1184.536499,1047.164917 1186.323242,1077.373901 
	C1189.452637,1130.278442 1186.827515,1183.163818 1188.094360,1236.035767 
	C1188.331055,1245.908325 1189.773804,1255.752075 1190.111206,1265.646240 
	C1188.773560,1269.234131 1180.426514,1267.249023 1184.352539,1274.125000 
	C1174.519409,1281.439087 1164.354370,1288.931274 1153.489258,1295.212646 
	C1115.173340,1317.363525 1075.006226,1335.475830 1032.680908,1348.573608 
	C1019.733398,1352.580322 1006.576965,1355.911743 992.757019,1358.560791 
	C991.998535,1338.596802 992.186340,1319.622314 991.963074,1300.652588 
	C991.407898,1253.472534 990.704041,1206.293945 989.912354,1159.117310 
	C989.858398,1155.903442 988.579956,1152.709961 988.335999,1149.013672 
	C1016.770996,1136.845459 1043.409180,1122.706543 1067.886597,1104.776367 
	C1090.421387,1088.269165 1111.655029,1070.230835 1129.112915,1048.234009 
	C1139.609497,1035.008179 1149.597534,1021.378845 1160.559448,1007.940979 
	C1168.149292,1004.690247 1175.749146,992.434265 1175.232300,985.333923 
	C1175.196899,984.846741 1174.370239,984.417175 1173.981567,983.306763 
	C1175.328979,980.425171 1176.606445,978.197571 1177.884033,975.969971 
z"/>
<path fill="#A686B8" opacity="1.000000" stroke="none" 
	d="
M2931.433594,1294.227539 
	C2931.514404,1289.989868 2931.892334,1286.347656 2931.968750,1282.699341 
	C2932.086914,1277.042603 2932.042236,1271.381226 2931.993652,1265.722412 
	C2931.336670,1189.242920 2930.633789,1112.763794 2930.082275,1036.283447 
	C2930.049316,1031.737793 2931.202881,1027.183472 2932.670410,1022.310913 
	C2944.338623,1035.613770 2954.189697,1050.156982 2966.209229,1062.607056 
	C2978.318115,1075.149536 2992.374756,1085.864746 3005.941162,1096.935913 
	C3039.770752,1124.543701 3078.264404,1143.391602 3119.632812,1156.760620 
	C3126.515869,1158.984985 3133.211914,1161.788208 3139.997070,1165.240967 
	C3140.665771,1214.513428 3138.552002,1262.892456 3141.868164,1311.233276 
	C3143.201172,1330.667725 3140.500977,1350.291016 3144.000000,1369.678955 
	C3116.087891,1365.600830 3088.544922,1359.797485 3061.467529,1351.866821 
	C3016.653564,1338.741211 2974.128906,1320.273193 2933.721191,1296.902588 
	C2932.889404,1296.421387 2932.298584,1295.523682 2931.433594,1294.227539 
z"/>
<path fill="#6DA3C3" opacity="1.000000" stroke="none" 
	d="
M554.893311,1375.456421 
	C553.980103,1327.704712 554.176025,1280.141113 553.907837,1232.580200 
	C553.801453,1213.704346 552.665771,1194.834229 552.926636,1174.890747 
	C630.248169,1173.800537 706.641724,1173.779053 783.035278,1173.775757 
	C784.689514,1173.775635 786.343750,1173.983032 787.887390,1174.918213 
	C787.184509,1179.632446 785.997192,1183.538940 786.107117,1187.408813 
	C786.500427,1201.265503 787.843018,1215.107056 787.907959,1228.958862 
	C788.136414,1277.728760 787.983276,1326.500610 787.974915,1375.271729 
	C786.326416,1375.431519 784.677979,1375.731445 783.029480,1375.731201 
	C707.291809,1375.719116 631.554138,1375.680908 554.893311,1375.456421 
z"/>
<path fill="#6BA4C4" opacity="1.000000" stroke="none" 
	d="
M537.537720,684.084167 
	C537.032410,681.153198 536.147583,678.230896 536.079773,675.289856 
	C535.314087,642.080627 534.495911,608.870789 534.060120,575.656311 
	C533.749939,552.019409 534.250305,528.371826 533.938660,504.734924 
	C533.518250,472.852142 532.733948,440.973236 531.872437,409.098969 
	C531.800964,406.455170 529.952026,403.859344 528.457275,400.617188 
	C543.972900,390.611389 559.585999,380.502136 576.044067,372.035553 
	C595.784790,361.880371 615.928650,352.349030 636.473022,343.955139 
	C664.159180,332.643341 692.679993,323.619629 723.543335,318.363892 
	C725.978882,325.729645 727.729614,332.541138 727.880188,339.387817 
	C729.069946,393.489594 725.905457,447.643433 729.917908,501.722198 
	C730.506714,509.658112 729.994995,517.675659 729.324829,525.981018 
	C696.106079,539.050354 664.993408,554.463745 636.845886,575.452209 
	C604.933289,599.248047 576.899841,626.748230 554.869934,660.130554 
	C549.446533,668.348755 543.333618,676.111816 537.537720,684.084167 
z"/>
<path fill="#AC83B7" opacity="1.000000" stroke="none" 
	d="
M3144.661621,1369.793213 
	C3140.500977,1350.291016 3143.201172,1330.667725 3141.868164,1311.233276 
	C3138.552002,1262.892456 3140.665771,1214.513428 3140.800537,1165.138672 
	C3164.156738,1168.653809 3186.851807,1171.986206 3210.179688,1172.408203 
	C3210.433594,1172.765747 3211.156006,1173.253418 3211.156006,1173.253418 
	C3211.156006,1173.253418 3212.027344,1173.229370 3212.941895,1173.423584 
	C3225.901855,1173.438110 3237.946777,1173.258545 3250.413086,1173.100098 
	C3251.395020,1172.934570 3251.831299,1172.589844 3253.054199,1172.135010 
	C3276.529785,1172.130737 3298.584229,1168.199707 3320.311035,1162.636475 
	C3334.989258,1158.878052 3349.364746,1153.936890 3363.912598,1150.491211 
	C3363.966553,1182.077881 3363.732666,1212.700684 3364.065918,1243.317383 
	C3364.448975,1278.514526 3365.282959,1313.707275 3366.079102,1348.898560 
	C3366.160156,1352.474243 3367.323975,1356.025513 3367.985107,1359.588135 
	C3341.916504,1365.943115 3315.618652,1370.796509 3288.758789,1372.298340 
	C3271.269531,1373.276123 3253.779785,1375.817749 3236.327637,1375.513184 
	C3209.892822,1375.051880 3183.490479,1372.723145 3157.003174,1370.201538 
	C3158.652832,1365.803223 3157.164062,1364.404663 3153.782715,1364.054443 
	C3149.489990,1363.609619 3147.715332,1365.616211 3148.000000,1369.759766 
	C3147.107910,1369.809082 3146.215576,1369.858276 3144.661621,1369.793213 
z"/>
<path fill="#A686B8" opacity="1.000000" stroke="none" 
	d="
M2911.531738,693.989136 
	C2908.270996,694.319092 2905.010254,694.649109 2900.739258,695.081360 
	C2899.829102,686.411011 2898.178955,677.705139 2898.124268,668.989197 
	C2897.851807,625.707581 2899.374023,582.366516 2897.588135,539.156982 
	C2896.008057,500.922668 2896.579834,462.734863 2895.979248,424.530304 
	C2895.819824,414.397583 2899.794922,407.105896 2909.689697,403.741821 
	C2913.217285,402.542542 2914.048828,400.014679 2913.788574,395.880676 
	C2924.060303,388.551270 2934.080322,381.478241 2944.807373,375.723480 
	C2988.487549,352.290375 3034.056396,333.534363 3083.054199,322.510437 
	C3079.144531,327.534912 3077.707520,332.682312 3077.864990,339.072540 
	C3078.569092,367.619476 3078.076904,396.152222 3079.622070,424.734344 
	C3081.291016,455.608765 3079.898193,486.643860 3080.094238,517.607239 
	C3080.129639,523.172974 3081.392578,528.730896 3081.791748,534.900696 
	C3073.573486,539.678833 3065.691650,543.925293 3057.724121,548.004700 
	C3030.703613,561.839478 3005.938232,579.085510 2983.907959,599.807800 
	C2966.682617,616.010376 2949.369385,632.384216 2936.529297,652.654175 
	C2933.207520,657.898132 2929.460205,662.872498 2925.157227,667.981018 
	C2915.184814,669.316772 2914.796631,670.185669 2919.738770,678.634338 
	C2916.866455,684.191162 2914.199219,689.090149 2911.531738,693.989136 
z"/>
<path fill="#72A1C2" opacity="1.000000" stroke="none" 
	d="
M788.897949,1375.459961 
	C787.983276,1326.500610 788.136414,1277.728760 787.907959,1228.958862 
	C787.843018,1215.107056 786.500427,1201.265503 786.107117,1187.408813 
	C785.997192,1183.538940 787.184509,1179.632446 788.816895,1174.781982 
	C820.378052,1173.291504 850.905701,1173.001221 881.417969,1172.155518 
	C905.363037,1171.491943 928.793579,1167.165039 951.760803,1160.400391 
	C963.820740,1156.848267 975.835693,1153.143066 987.870972,1149.507080 
	C988.579956,1152.709961 989.858398,1155.903442 989.912354,1159.117310 
	C990.704041,1206.293945 991.407898,1253.472534 991.963074,1300.652588 
	C992.186340,1319.622314 991.998535,1338.596802 991.998535,1358.454346 
	C972.860168,1362.935303 953.831055,1367.374756 934.550903,1369.888428 
	C915.579285,1372.361816 896.373047,1373.472290 877.233765,1374.121948 
	C848.112488,1375.110107 818.960205,1375.185303 788.897949,1375.459961 
z"/>
<path fill="#AA84B7" opacity="1.000000" stroke="none" 
	d="
M3082.088867,534.292480 
	C3081.392578,528.730896 3080.129639,523.172974 3080.094238,517.607239 
	C3079.898193,486.643860 3081.291016,455.608765 3079.622070,424.734344 
	C3078.076904,396.152222 3078.569092,367.619476 3077.864990,339.072540 
	C3077.707520,332.682312 3079.144531,327.534912 3083.855957,322.485901 
	C3098.780273,318.468231 3113.527344,314.723602 3128.464600,312.037231 
	C3173.481934,303.941254 3218.939697,302.660950 3264.531494,304.266602 
	C3268.477783,304.405579 3272.397705,305.291443 3277.165039,305.961975 
	C3280.777100,366.647491 3279.891357,427.241913 3279.977051,487.825134 
	C3279.985840,493.989960 3283.012207,500.149658 3279.131348,507.222046 
	C3272.304688,507.494629 3266.385986,506.421661 3260.449463,506.309906 
	C3231.918213,505.772614 3203.492676,505.223114 3174.992188,509.441772 
	C3146.184082,513.705933 3118.696777,521.743103 3091.653320,531.999207 
	C3088.612549,533.152283 3085.283691,533.546387 3082.088867,534.292480 
z"/>
<path fill="#B080B6" opacity="1.000000" stroke="none" 
	d="
M3368.750732,1359.597412 
	C3367.323975,1356.025513 3366.160156,1352.474243 3366.079102,1348.898560 
	C3365.282959,1313.707275 3364.448975,1278.514526 3364.065918,1243.317383 
	C3363.732666,1212.700684 3363.966553,1182.077881 3364.419434,1150.023193 
	C3387.094238,1139.718384 3408.509033,1129.306274 3428.627686,1116.297852 
	C3459.180176,1096.543335 3486.864990,1073.501099 3509.845459,1045.155762 
	C3518.164307,1034.895142 3525.854492,1024.125000 3533.831543,1013.587219 
	C3534.554443,1019.147949 3535.854004,1024.702637 3535.912842,1030.270508 
	C3536.709717,1105.475830 3537.338135,1180.683228 3537.991699,1255.890137 
	C3538.052490,1262.885742 3537.856201,1269.886719 3538.063721,1276.876709 
	C3538.160645,1280.136963 3538.938477,1283.376831 3539.746094,1287.409790 
	C3520.637207,1298.858276 3501.494141,1310.131226 3481.671631,1320.044922 
	C3451.951904,1334.907837 3420.695801,1345.958740 3388.621094,1354.645630 
	C3382.270752,1356.365356 3375.885498,1357.956299 3368.750732,1359.597412 
z"/>
<path fill="#70A2C3" opacity="1.000000" stroke="none" 
	d="
M729.992493,525.655457 
	C729.994995,517.675659 730.506714,509.658112 729.917908,501.722198 
	C725.905457,447.643433 729.069946,393.489594 727.880188,339.387817 
	C727.729614,332.541138 725.978882,325.729645 724.347046,318.359741 
	C736.193665,315.279999 748.576233,312.126740 761.153687,310.361145 
	C776.745483,308.172455 792.498596,307.133331 809.518188,305.429443 
	C811.424377,305.020020 811.847473,304.622253 812.123535,304.068024 
	C835.628662,304.125488 859.134705,304.082947 882.638184,304.310455 
	C888.539734,304.367584 894.432983,305.291168 901.163818,305.954407 
	C901.998291,306.756256 901.993652,307.420349 902.000366,308.084320 
	C902.666443,374.069489 903.333313,440.054688 903.117432,507.096436 
	C899.259888,508.006866 896.256836,508.072784 893.314758,507.681122 
	C868.915344,504.432953 844.472046,505.562958 819.584473,506.776428 
	C818.573669,506.982147 818.149475,507.377899 816.976196,507.896240 
	C806.577026,508.928314 796.890503,509.170563 787.609131,511.234528 
	C768.289978,515.530701 749.185303,520.791199 729.992493,525.655457 
z"/>
<path fill="#8A94BE" opacity="1.000000" stroke="none" 
	d="
M1777.992432,615.751465 
	C1777.328247,610.527466 1776.112061,605.306030 1776.088379,600.079102 
	C1775.921631,563.161194 1776.260254,526.239685 1775.926147,489.324036 
	C1775.598633,453.153198 1774.608398,416.988739 1774.074097,380.819031 
	C1774.009521,376.443390 1772.901611,373.024780 1768.519287,370.254700 
	C1783.032593,362.644073 1797.979248,354.786011 1813.480469,348.241425 
	C1850.479492,332.620209 1888.727661,320.942719 1929.173462,314.970062 
	C1930.666626,355.485107 1931.466675,395.015167 1931.949097,434.549042 
	C1932.229492,457.517090 1931.872803,480.492554 1932.091553,503.461914 
	C1932.144531,509.032623 1933.337769,514.592407 1933.416260,520.564209 
	C1906.477173,530.080994 1880.759766,540.559448 1856.533691,554.559204 
	C1827.497559,571.338684 1801.856934,592.382385 1777.992432,615.751465 
z"/>
<path fill="#8E93BD" opacity="1.000000" stroke="none" 
	d="
M1934.006714,520.157227 
	C1933.337769,514.592407 1932.144531,509.032623 1932.091553,503.461914 
	C1931.872803,480.492554 1932.229492,457.517090 1931.949097,434.549042 
	C1931.466675,395.015167 1930.666626,355.485107 1930.000000,315.024292 
	C1941.008301,312.161530 1951.950928,309.601074 1963.040161,308.435791 
	C1981.363037,306.510437 1999.780762,305.485260 2019.583984,303.844208 
	C2021.348389,303.507599 2021.687500,303.407501 2022.026489,303.307434 
	C2037.242310,303.610352 2052.464600,303.736694 2067.671875,304.278046 
	C2077.875488,304.641205 2088.058105,305.592590 2099.128906,306.502441 
	C2100.005127,334.020844 2099.742676,361.320648 2100.069580,388.613403 
	C2100.431641,418.823975 2101.539307,449.025787 2101.879150,479.236389 
	C2101.986816,488.790131 2100.671143,498.359833 2099.171387,508.812622 
	C2085.858154,508.434601 2073.403564,506.466461 2060.896484,506.037933 
	C2031.364380,505.026062 2001.855957,505.501801 1972.764526,511.757050 
	C1959.840698,514.535889 1946.925659,517.355896 1934.006714,520.157227 
z"/>
<path fill="#B57EB5" opacity="1.000000" stroke="none" 
	d="
M3579.658691,1499.949097 
	C3584.449463,1489.154907 3592.631348,1485.480957 3604.445312,1485.578613 
	C3659.104980,1486.031250 3713.770996,1485.760986 3768.434570,1485.812744 
	C3772.066895,1485.816162 3775.886230,1485.721558 3779.294678,1486.748291 
	C3788.398438,1489.490601 3793.065186,1497.911011 3792.250977,1508.959229 
	C3791.649658,1517.116943 3784.981445,1524.357666 3776.368896,1525.770996 
	C3773.109375,1526.306030 3769.728760,1526.217163 3766.403320,1526.219360 
	C3721.739014,1526.249023 3677.074951,1526.244507 3632.410645,1526.248291 
	C3628.810547,1526.248657 3625.210449,1526.248291 3620.930176,1526.248291 
	C3620.930176,1550.333496 3620.930176,1573.469604 3620.930176,1597.684204 
	C3624.512695,1597.862671 3628.031982,1598.187744 3631.551514,1598.190796 
	C3673.215820,1598.225708 3714.880371,1598.174072 3756.544434,1598.280640 
	C3760.115723,1598.289795 3763.989990,1598.552368 3767.195801,1599.927612 
	C3776.343262,1603.852295 3780.154297,1613.023193 3777.968018,1624.220215 
	C3776.458252,1631.951904 3768.566162,1638.486816 3758.889404,1638.395996 
	C3716.895508,1638.001953 3674.895752,1638.227905 3632.897949,1638.228638 
	C3629.258301,1638.228760 3625.618408,1638.228638 3620.803711,1638.228638 
	C3619.623291,1662.202393 3620.485107,1685.591675 3620.171143,1710.204102 
	C3624.927002,1710.204102 3628.485840,1710.203857 3632.044922,1710.203979 
	C3677.375732,1710.205933 3722.706543,1710.219971 3768.037354,1710.199951 
	C3777.124023,1710.196045 3785.156982,1712.039673 3790.066895,1720.840942 
	C3796.386475,1732.169067 3791.337646,1746.177490 3779.026123,1750.081299 
	C3775.303711,1751.261719 3771.204346,1751.709595 3767.275879,1751.716919 
	C3712.945801,1751.818970 3658.615479,1751.811157 3604.285156,1751.726807 
	C3600.676270,1751.721191 3596.954346,1751.297363 3593.482178,1750.347900 
	C3584.989746,1748.025269 3580.327881,1741.850708 3579.838623,1732.861328 
	C3579.675781,1729.869873 3579.784912,1726.863159 3579.783203,1723.863403 
	C3579.738281,1650.535156 3579.694336,1577.206787 3579.643555,1502.444336 
	C3579.643799,1500.656616 3579.651123,1500.302856 3579.658691,1499.949097 
z"/>
<path fill="#9192BD" opacity="1.000000" stroke="none" 
	d="
M2200.639648,1598.631836 
	C2222.103516,1603.223267 2239.710693,1612.737793 2251.656006,1630.478149 
	C2272.787354,1661.861206 2270.781738,1697.854370 2246.127197,1726.269043 
	C2231.948975,1742.609741 2212.658203,1751.506592 2190.609375,1751.676025 
	C2143.302979,1752.039551 2095.991943,1751.841309 2048.682861,1751.755249 
	C2037.630005,1751.735229 2028.865479,1745.452637 2026.596313,1736.505981 
	C2024.297119,1727.440186 2027.908813,1717.546509 2036.325928,1713.455444 
	C2040.882080,1711.240967 2046.499390,1710.366455 2051.645264,1710.340820 
	C2097.287354,1710.112793 2142.931885,1710.038452 2188.573486,1710.319580 
	C2201.649170,1710.400146 2219.173584,1701.456543 2222.857178,1686.338867 
	C2225.438965,1675.744019 2226.329590,1664.656616 2219.323975,1655.675415 
	C2211.027588,1645.039429 2200.250488,1637.961304 2185.636475,1638.134399 
	C2157.321533,1638.469727 2128.978027,1637.528076 2100.686523,1638.406494 
	C2062.131348,1639.603516 2026.066650,1603.274902 2026.027588,1564.101807 
	C2026.001221,1537.748169 2036.165771,1516.873047 2056.411377,1500.957886 
	C2068.604004,1491.372925 2082.685791,1485.670654 2098.727051,1485.719238 
	C2143.037109,1485.853271 2187.355469,1486.198853 2231.653076,1485.445068 
	C2241.761963,1485.273071 2251.059814,1494.548828 2251.841553,1503.450806 
	C2252.809326,1514.468018 2246.123535,1523.758301 2235.007568,1525.755249 
	C2231.763672,1526.338013 2228.372559,1526.222778 2225.049072,1526.225220 
	C2185.069580,1526.254639 2145.090332,1526.236084 2105.110840,1526.250977 
	C2083.368408,1526.259033 2068.471436,1538.479004 2066.775146,1559.899414 
	C2065.269775,1578.911987 2079.508789,1595.364380 2098.875977,1597.682251 
	C2103.487305,1598.234131 2108.185547,1598.178711 2112.844482,1598.195312 
	C2141.827393,1598.298340 2170.810547,1598.342285 2200.639648,1598.631836 
z"/>
<path fill="#9B8CBA" opacity="1.000000" stroke="none" 
	d="
M2499.835938,1489.540283 
	C2523.552734,1482.907349 2547.070557,1484.228516 2570.186768,1492.054932 
	C2598.845703,1501.757690 2620.125000,1520.675049 2635.017090,1546.675781 
	C2644.385742,1563.033569 2649.569824,1580.935303 2649.691162,1599.854614 
	C2649.966309,1642.779297 2649.692383,1685.707275 2649.865723,1728.633057 
	C2649.892822,1735.335815 2648.587158,1741.149414 2643.565674,1745.762085 
	C2637.457275,1751.373657 2630.542725,1753.585205 2622.533691,1750.255493 
	C2614.574707,1746.946899 2609.420410,1742.003662 2609.652832,1732.309692 
	C2610.091797,1714.018311 2609.778076,1695.708862 2609.777100,1677.406860 
	C2609.776855,1674.120605 2609.776855,1670.834351 2609.776855,1666.129150 
	C2574.033203,1665.294312 2538.928711,1666.171997 2502.925293,1664.592041 
	C2502.000488,1650.594116 2501.999512,1637.654663 2502.920410,1624.530518 
	C2538.932617,1623.862427 2574.046387,1624.687134 2610.387939,1623.866333 
	C2609.578369,1614.520630 2608.706299,1606.677612 2608.250488,1598.810425 
	C2606.319092,1565.480347 2583.566162,1540.027222 2555.604248,1530.317261 
	C2536.941162,1523.836304 2518.399170,1525.145142 2500.000000,1530.661499 
	C2499.945312,1516.347534 2499.890625,1502.943970 2499.835938,1489.540283 
z"/>
<path fill="#AB83B7" opacity="1.000000" stroke="none" 
	d="
M3297.983887,1751.282471 
	C3269.373535,1751.445557 3240.761719,1751.832275 3212.153320,1751.663696 
	C3200.363037,1751.594238 3191.374756,1740.967285 3191.618896,1729.152954 
	C3192.127686,1704.534302 3191.767578,1679.897827 3191.766846,1655.268677 
	C3191.765381,1607.008789 3191.769531,1558.748779 3191.761475,1510.488892 
	C3191.760498,1503.782837 3191.863770,1497.282227 3197.201660,1491.971680 
	C3201.489258,1487.705688 3206.120361,1485.640259 3212.261230,1485.692505 
	C3238.885254,1485.919312 3265.512207,1485.828369 3293.068848,1486.833130 
	C3294.666504,1500.516846 3295.333252,1513.220215 3295.068848,1526.043823 
	C3273.698486,1526.473999 3253.231689,1525.863403 3232.850342,1526.515015 
	C3232.850342,1588.356689 3232.850342,1648.731323 3232.850342,1710.207764 
	C3237.021729,1710.207764 3240.596680,1710.181274 3244.171143,1710.212158 
	C3262.113281,1710.367188 3280.055420,1710.537231 3297.999023,1711.594971 
	C3297.994873,1725.419556 3297.989502,1738.350952 3297.983887,1751.282471 
z"/>
<path fill="#AF82B7" opacity="1.000000" stroke="none" 
	d="
M3296.000000,1525.923706 
	C3295.333252,1513.220215 3294.666504,1500.516846 3294.000000,1486.952393 
	C3349.293457,1484.419922 3389.453857,1509.123535 3416.371338,1556.596069 
	C3424.661865,1571.217285 3429.457031,1587.008667 3430.283691,1605.231445 
	C3430.528809,1607.193848 3430.917969,1607.680176 3431.490967,1608.019653 
	C3431.568115,1614.072388 3431.645264,1620.125000 3431.273438,1627.415771 
	C3430.680664,1629.291748 3430.537109,1629.929810 3430.393799,1630.567871 
	C3426.878906,1675.212036 3404.984131,1708.539062 3367.625732,1732.269531 
	C3346.917969,1745.423340 3323.970947,1750.911133 3298.839844,1751.468262 
	C3297.989502,1738.350952 3297.994873,1725.419556 3298.885010,1711.413818 
	C3323.893066,1710.390869 3344.663330,1701.715454 3361.928711,1685.221680 
	C3383.741943,1664.383545 3392.895264,1638.452026 3389.957520,1608.539551 
	C3387.543701,1583.962280 3376.544189,1563.603394 3357.535156,1547.779785 
	C3339.744873,1532.970337 3319.085693,1525.962280 3296.000000,1525.923706 
z"/>
<path fill="#988DBB" opacity="1.000000" stroke="none" 
	d="
M2499.063965,1489.619019 
	C2499.890625,1502.943970 2499.945312,1516.347534 2499.300293,1530.890869 
	C2461.961182,1547.430908 2445.923584,1588.778931 2451.817627,1624.715088 
	C2468.370361,1624.715088 2485.184570,1624.715088 2501.998535,1624.715088 
	C2501.999512,1637.654663 2502.000488,1650.594116 2502.005859,1664.412842 
	C2485.127930,1665.578979 2468.245850,1665.865845 2450.737549,1666.163452 
	C2450.540039,1670.204346 2450.252197,1673.449707 2450.244141,1676.695801 
	C2450.199219,1694.692261 2450.270020,1712.688965 2450.205811,1730.685303 
	C2450.161865,1743.019531 2442.278809,1751.657349 2431.155518,1751.762939 
	C2419.480225,1751.873779 2410.298828,1743.004028 2410.268066,1730.967041 
	C2410.154053,1686.309204 2409.494141,1641.634888 2410.487061,1596.999023 
	C2411.106934,1569.141968 2422.524658,1544.736694 2441.275391,1524.130981 
	C2456.797852,1507.072632 2475.681152,1495.205078 2499.063965,1489.619019 
z"/>
<path fill="#45B9CC" opacity="1.000000" stroke="none" 
	d="
M174.679199,229.442719 
	C173.984909,215.541626 174.903244,201.494385 173.837448,187.599335 
	C169.863205,135.785645 173.181351,83.919075 171.933228,32.097626 
	C171.766724,25.184484 170.711151,18.292753 170.119385,10.465645 
	C185.893311,12.902317 199.011871,21.486732 210.847824,31.615650 
	C226.587158,45.084972 239.452087,61.095112 246.278931,81.079140 
	C248.621613,87.936783 250.787491,95.040649 251.623444,102.196815 
	C256.758057,146.152374 242.655991,182.591034 207.926529,210.497925 
	C198.078644,218.411194 187.463226,225.206528 174.679199,229.442719 
z"/>
<path fill="#A686B8" opacity="1.000000" stroke="none" 
	d="
M2909.992188,1710.314697 
	C2921.878174,1709.759644 2933.651855,1710.575317 2945.488525,1706.701538 
	C2978.844482,1695.785034 3000.024902,1663.637817 2999.819824,1631.020630 
	C2999.566895,1590.725342 2999.705078,1550.427002 2999.826904,1510.130493 
	C2999.839600,1505.891968 3000.070312,1501.332031 3001.608643,1497.484497 
	C3005.331055,1488.174438 3015.400391,1483.738037 3025.593262,1486.082397 
	C3034.045166,1488.026123 3040.144775,1495.587524 3040.166504,1505.128296 
	C3040.269531,1550.753418 3040.765381,1596.388916 3039.954834,1642.000122 
	C3039.542480,1665.194824 3030.447754,1686.030029 3016.316895,1704.403564 
	C2995.862793,1730.999390 2969.007568,1746.602295 2935.498779,1750.237671 
	C2928.267090,1751.022339 2920.972656,1751.228638 2912.454346,1750.925537 
	C2910.546143,1746.289185 2910.030518,1742.398804 2909.208496,1738.574341 
	C2907.166504,1729.074829 2907.219238,1719.665161 2909.992188,1710.314697 
z"/>
<path fill="#A189B9" opacity="1.000000" stroke="none" 
	d="
M2909.231689,1710.100342 
	C2907.219238,1719.665161 2907.166504,1729.074829 2909.208496,1738.574341 
	C2910.030518,1742.398804 2910.546143,1746.289185 2911.539062,1750.830322 
	C2895.979736,1749.571655 2880.711670,1745.834961 2866.283203,1738.391235 
	C2833.545410,1721.502197 2812.987061,1695.218384 2804.356934,1659.623779 
	C2802.654297,1652.601562 2801.922852,1645.184692 2801.886230,1637.943970 
	C2801.665527,1594.336426 2801.691406,1550.726562 2801.911621,1507.119019 
	C2801.934082,1502.706177 2802.709961,1497.583130 2805.039062,1494.040649 
	C2810.358887,1485.949707 2819.635010,1483.598389 2828.729736,1486.646606 
	C2836.600342,1489.284790 2841.738281,1497.065430 2841.754395,1507.038696 
	C2841.819336,1547.651367 2841.941895,1588.265015 2841.715820,1628.876587 
	C2841.582520,1652.814697 2850.167969,1673.013184 2867.063721,1689.561279 
	C2878.509766,1700.771484 2892.718994,1707.079468 2909.231689,1710.100342 
z"/>
<path fill="#A686B8" opacity="1.000000" stroke="none" 
	d="
M2979.364746,1455.222534 
	C2980.305908,1462.990845 2978.409180,1469.024780 2973.297363,1474.101074 
	C2957.001465,1490.283813 2940.559082,1506.330566 2924.656982,1522.894043 
	C2916.770264,1531.108276 2902.021729,1530.582520 2895.404785,1522.908447 
	C2888.277100,1514.641602 2887.337158,1503.715088 2894.945801,1495.888550 
	C2911.649658,1478.707642 2928.505371,1461.656860 2945.794922,1445.069580 
	C2957.220703,1434.108032 2971.718750,1438.518555 2979.364746,1455.222534 
z"/>
<path fill="#A686B8" opacity="1.000000" stroke="none" 
	d="
M3148.768555,1369.924683 
	C3147.715332,1365.616211 3149.489990,1363.609619 3153.782715,1364.054443 
	C3157.164062,1364.404663 3158.652832,1365.803223 3156.370850,1369.669067 
	C3153.718994,1370.111694 3151.628174,1370.100586 3148.768555,1369.924683 
z"/>
<path fill="#C89EC6" opacity="1.000000" stroke="none" 
	d="
M3430.785156,1630.239258 
	C3430.537109,1629.929810 3430.680664,1629.291748 3431.194092,1628.319946 
	C3431.434814,1628.627686 3431.305664,1629.269165 3430.785156,1630.239258 
z"/>
<path fill="#C89EC6" opacity="1.000000" stroke="none" 
	d="
M3431.515381,1607.529541 
	C3430.917969,1607.680176 3430.528809,1607.193848 3430.286621,1606.081787 
	C3430.869873,1605.911499 3431.299805,1606.390259 3431.515381,1607.529541 
z"/>
<path fill="#74C8D7" opacity="1.000000" stroke="none" 
	d="
M142.438080,237.545837 
	C142.293625,236.876862 142.807938,236.496262 143.967209,236.323883 
	C143.954102,236.759506 143.448990,237.193542 142.438080,237.545837 
z"/>
<path fill="#EADFED" opacity="1.000000" stroke="none" 
	d="
M3579.362793,1500.128906 
	C3579.651123,1500.302856 3579.643799,1500.656616 3579.494141,1501.521484 
	C3579.132568,1501.650391 3578.867188,1501.284790 3578.720947,1500.876343 
	C3578.674072,1500.745117 3578.942627,1500.500977 3579.362793,1500.128906 
z"/>
<path fill="#E1E4EE" opacity="1.000000" stroke="none" 
	d="
M2021.781738,303.067749 
	C2021.687500,303.407501 2021.348389,303.507599 2020.479858,303.632080 
	C2020.479248,303.380341 2021.008179,303.104187 2021.781738,303.067749 
z"/>
<path fill="#E1E4EE" opacity="1.000000" stroke="none" 
	d="
M811.702271,304.118103 
	C811.847473,304.622253 811.424377,305.020020 810.414917,305.227417 
	C810.287170,304.694611 810.722351,304.352783 811.702271,304.118103 
z"/>
<path fill="#74C8D7" opacity="1.000000" stroke="none" 
	d="
M235.589325,401.538788 
	C235.118622,401.506744 234.744080,400.955353 234.407623,399.890381 
	C234.858978,399.924316 235.272232,400.471893 235.589325,401.538788 
z"/>
<path fill="#9EB2CF" opacity="1.000000" stroke="none" 
	d="
M1473.161377,829.696228 
	C1473.425293,830.013855 1473.287231,830.668518 1472.773315,831.668823 
	C1472.518066,831.354065 1472.638794,830.693604 1473.161377,829.696228 
z"/>
<path fill="#CBF0F3" opacity="1.000000" stroke="none" 
	d="
M21.191963,1288.183838 
	C21.582771,1288.284058 21.706003,1288.622314 21.815840,1289.500244 
	C21.509760,1289.500854 21.217073,1288.961426 21.191963,1288.183838 
z"/>
<path fill="#FFFFFF" opacity="1.000000" stroke="none" 
	d="
M3533.958984,1012.922302 
	C3525.854492,1024.125000 3518.164307,1034.895142 3509.845459,1045.155762 
	C3486.864990,1073.501099 3459.180176,1096.543335 3428.627686,1116.297852 
	C3408.509033,1129.306274 3387.094238,1139.718384 3364.382080,1149.056641 
	C3349.364746,1153.936890 3334.989258,1158.878052 3320.311035,1162.636475 
	C3298.584229,1168.199707 3276.529785,1172.130737 3252.638672,1172.160767 
	C3250.758789,1172.293579 3250.318848,1172.606934 3249.991943,1173.078857 
	C3237.946777,1173.258545 3225.901855,1173.438110 3212.670898,1173.109863 
	C3211.031494,1172.231201 3210.511719,1172.047485 3209.926025,1172.050537 
	C3186.851807,1171.986206 3164.156738,1168.653809 3140.797852,1164.221680 
	C3133.211914,1161.788208 3126.515869,1158.984985 3119.632812,1156.760620 
	C3078.264404,1143.391602 3039.770752,1124.543701 3005.941162,1096.935913 
	C2992.374756,1085.864746 2978.318115,1075.149536 2966.209229,1062.607056 
	C2954.189697,1050.156982 2944.338623,1035.613770 2933.030762,1021.476440 
	C2924.000732,1006.035339 2914.822021,991.436462 2907.091064,976.107483 
	C2891.795166,945.778931 2882.742432,913.418823 2878.292725,879.778137 
	C2877.774658,875.861389 2878.003906,871.845764 2877.851562,866.560181 
	C2877.615234,864.699341 2877.267578,864.274292 2876.773682,863.969055 
	C2876.642090,857.917847 2876.510498,851.866577 2876.770508,844.695190 
	C2877.441650,842.882690 2877.237305,842.343994 2876.548828,841.958862 
	C2874.959229,811.142456 2879.868896,781.120850 2888.413086,751.691589 
	C2892.285156,738.355164 2897.645020,725.450623 2902.876709,711.181274 
	C2904.315918,708.070801 2905.208496,706.129150 2906.100586,704.187500 
	C2907.826904,701.212097 2909.553223,698.236694 2911.405518,694.625244 
	C2914.199219,689.090149 2916.866455,684.191162 2920.291992,678.288940 
	C2922.669434,674.180664 2924.288818,671.075562 2925.908203,667.970581 
	C2929.460205,662.872498 2933.207520,657.898132 2936.529297,652.654175 
	C2949.369385,632.384216 2966.682617,616.010376 2983.907959,599.807800 
	C3005.938232,579.085510 3030.703613,561.839478 3057.724121,548.004700 
	C3065.691650,543.925293 3073.573486,539.678833 3081.791504,534.900757 
	C3085.283691,533.546387 3088.612549,533.152283 3091.653320,531.999207 
	C3118.696777,521.743103 3146.184082,513.705933 3174.992188,509.441772 
	C3203.492676,505.223114 3231.918213,505.772614 3260.449463,506.309906 
	C3266.385986,506.421661 3272.304688,507.494629 3279.115723,508.015808 
	C3295.874023,511.271759 3311.914307,514.006958 3327.586670,518.136536 
	C3357.236084,525.948975 3385.267334,537.840698 3412.124023,552.754456 
	C3440.789551,568.672729 3466.687988,588.204407 3489.699707,611.354248 
	C3501.554443,623.280212 3511.712158,636.892700 3523.217529,650.109619 
	C3530.783203,662.127747 3537.901855,673.701599 3544.726318,685.446289 
	C3560.485596,712.567932 3571.497559,741.623596 3577.839111,772.253906 
	C3581.048340,787.754272 3582.301758,803.672546 3584.152832,819.435547 
	C3585.039062,826.983765 3586.065674,834.656494 3585.634033,842.193054 
	C3584.158447,867.969055 3581.840088,893.565918 3575.122314,918.768555 
	C3566.222656,952.156921 3552.120361,983.007202 3533.958984,1012.922302 
z"/>
<path fill="#39BFCE" opacity="1.000000" stroke="none" 
	d="
M67.851288,17.693752 
	C67.825935,17.263828 68.350906,16.753727 69.434296,16.190388 
	C69.462349,16.629293 68.931976,17.121433 67.851288,17.693752 
z"/>
<path fill="#FFFFFF" opacity="1.000000" stroke="none" 
	d="
M1933.416260,520.564209 
	C1946.925659,517.355896 1959.840698,514.535889 1972.764526,511.757050 
	C2001.855957,505.501801 2031.364380,505.026062 2060.896484,506.037933 
	C2073.403564,506.466461 2085.858154,508.434601 2099.167480,509.644806 
	C2127.226562,514.411438 2153.820801,521.516113 2179.403809,532.097656 
	C2212.128418,545.633240 2242.607666,562.968323 2270.225830,585.321655 
	C2290.950195,602.095276 2309.693115,620.745850 2326.947754,641.825623 
	C2334.289551,652.347534 2341.325195,662.378845 2347.824951,672.746216 
	C2371.770996,710.941406 2387.663330,752.245728 2393.577881,796.998535 
	C2399.881592,844.694092 2396.017334,891.783569 2380.848877,937.488708 
	C2369.909424,970.450378 2353.547363,1000.848816 2332.540039,1029.384155 
	C2318.519531,1045.234741 2305.204834,1060.962402 2290.736816,1075.545776 
	C2273.606445,1092.812500 2253.808350,1106.850220 2233.094971,1119.631104 
	C2198.889160,1140.737305 2162.361572,1156.028931 2123.084717,1164.680542 
	C2117.904541,1165.821533 2112.727783,1166.979004 2106.772949,1168.391357 
	C2105.088135,1168.547119 2104.179932,1168.440186 2102.077148,1168.354858 
	C2100.429688,1168.866211 2099.977051,1169.356079 2099.524414,1169.845947 
	C2086.373779,1171.090088 2073.227539,1172.382935 2060.069580,1173.544556 
	C2056.771729,1173.835815 2053.436523,1173.759155 2050.118652,1173.760986 
	C1988.032349,1173.794922 1925.946167,1173.815186 1862.929565,1173.966675 
	C1837.694580,1173.983765 1813.390137,1173.819336 1789.085327,1173.774780 
	C1758.780396,1173.719116 1728.475342,1173.762451 1698.170288,1173.762939 
	C1694.590576,1173.763062 1691.010742,1173.763062 1686.885864,1173.763062 
	C1686.619141,1169.798096 1686.254517,1166.898315 1686.253784,1163.998535 
	C1686.224121,1058.430542 1685.847900,952.860413 1686.460571,847.295959 
	C1686.643066,815.839966 1689.188110,784.288086 1698.561401,753.919861 
	C1709.351074,718.962585 1723.527710,685.371277 1744.831543,655.446228 
	C1754.550903,641.793701 1763.457275,627.199707 1777.397461,616.076416 
	C1801.856934,592.382385 1827.497559,571.338684 1856.533691,554.559204 
	C1880.759766,540.559448 1906.477173,530.080994 1933.416260,520.564209 
z"/>
<path fill="#A686B8" opacity="1.000000" stroke="none" 
	d="
M2905.794678,703.574524 
	C2905.208496,706.129150 2904.315918,708.070801 2902.925781,710.450073 
	C2901.659668,708.735229 2900.647705,706.628357 2900.232178,704.409790 
	C2900.040283,703.385254 2901.013672,702.142578 2901.458984,700.998718 
	C2902.802246,701.653015 2904.145264,702.307251 2905.794678,703.574524 
z"/>
<path fill="#EADFED" opacity="1.000000" stroke="none" 
	d="
M2876.496338,842.480896 
	C2877.237305,842.343994 2877.441650,842.882690 2876.923584,843.799500 
	C2876.604736,843.683594 2876.524170,843.343262 2876.496338,842.480896 
z"/>
<path fill="#EADFED" opacity="1.000000" stroke="none" 
	d="
M2876.760254,864.404785 
	C2877.267578,864.274292 2877.615234,864.699341 2877.881836,865.660034 
	C2877.397949,865.809326 2876.997559,865.397644 2876.760254,864.404785 
z"/>
<path fill="#FFFFFF" opacity="1.000000" stroke="none" 
	d="
M820.024231,506.808777 
	C844.472046,505.562958 868.915344,504.432953 893.314758,507.681122 
	C896.256836,508.072784 899.259888,508.006866 903.117004,508.027649 
	C909.464722,509.146057 914.888123,510.630157 920.402405,511.594391 
	C953.975220,517.464905 985.716614,528.437134 1016.285583,543.604675 
	C1040.842407,555.789062 1063.706665,570.201904 1085.067993,587.310547 
	C1106.681885,604.621460 1125.264282,624.715515 1142.027832,646.621033 
	C1144.246338,649.519958 1146.527344,652.371094 1149.302490,655.645264 
	C1159.445190,673.096985 1169.793091,689.784424 1178.524048,707.278748 
	C1193.926636,738.140991 1203.842285,770.832520 1206.109741,805.403381 
	C1207.368530,824.595764 1208.476807,843.947327 1207.395386,863.099731 
	C1206.410400,880.547363 1203.399170,898.061279 1199.423462,915.112915 
	C1194.640869,935.626038 1187.277710,955.456726 1177.983887,975.239746 
	C1176.606445,978.197571 1175.328979,980.425171 1173.452393,983.733032 
	C1168.506836,992.519104 1164.160522,1000.224976 1159.814087,1007.930786 
	C1149.597534,1021.378845 1139.609497,1035.008179 1129.112915,1048.234009 
	C1111.655029,1070.230835 1090.421387,1088.269165 1067.886597,1104.776367 
	C1043.409180,1122.706543 1016.770996,1136.845459 988.335999,1149.013672 
	C975.835693,1153.143066 963.820740,1156.848267 951.760803,1160.400391 
	C928.793579,1167.165039 905.363037,1171.491943 881.417969,1172.155518 
	C850.905701,1173.001221 820.378052,1173.291504 788.927490,1173.957397 
	C786.343750,1173.983032 784.689514,1173.775635 783.035278,1173.775757 
	C706.641724,1173.779053 630.248169,1173.800537 552.925354,1173.959717 
	C535.082092,1174.099365 518.168091,1174.099365 500.687195,1174.099365 
	C500.297516,1170.420288 499.795502,1167.887817 499.794617,1165.355103 
	C499.755585,1051.142090 499.744324,936.929077 499.771912,822.716064 
	C499.778564,795.232910 504.499908,768.569092 513.964050,742.743713 
	C518.371094,730.718079 522.323242,718.517944 527.021240,706.609802 
	C529.898865,699.315735 533.799988,692.425354 537.389648,684.718933 
	C543.333618,676.111816 549.446533,668.348755 554.869934,660.130554 
	C576.899841,626.748230 604.933289,599.248047 636.845886,575.452209 
	C664.993408,554.463745 696.106079,539.050354 729.324829,525.981018 
	C749.185303,520.791199 768.289978,515.530701 787.609131,511.234528 
	C796.890503,509.170563 806.577026,508.928314 817.398315,507.847107 
	C819.275940,507.649231 819.711853,507.307770 820.024231,506.808777 
z"/>
<path fill="#9290BC" opacity="1.000000" stroke="none" 
	d="
M2099.998535,1169.767090 
	C2099.977051,1169.356079 2100.429688,1168.866211 2101.391602,1168.421509 
	C2101.580811,1169.056396 2101.104736,1169.463623 2099.998535,1169.767090 
z"/>
<path fill="#7C9CC1" opacity="1.000000" stroke="none" 
	d="
M1160.559448,1007.941040 
	C1164.160522,1000.224976 1168.506836,992.519104 1173.382324,984.387024 
	C1174.370239,984.417175 1175.196899,984.846741 1175.232300,985.333923 
	C1175.749146,992.434265 1168.149292,1004.690247 1160.559448,1007.941040 
z"/>
<path fill="#EADFED" opacity="1.000000" stroke="none" 
	d="
M3250.413086,1173.100098 
	C3250.318848,1172.606934 3250.758789,1172.293579 3251.727539,1172.113037 
	C3251.831299,1172.589844 3251.395020,1172.934570 3250.413086,1173.100098 
z"/>
<path fill="#EADFED" opacity="1.000000" stroke="none" 
	d="
M3210.179688,1172.408203 
	C3210.511719,1172.047485 3211.031494,1172.231201 3211.756348,1172.915527 
	C3212.027344,1173.229370 3211.156006,1173.253418 3211.156006,1173.253418 
	C3211.156006,1173.253418 3210.433594,1172.765747 3210.179688,1172.408203 
z"/>
<path fill="#A189B9" opacity="1.000000" stroke="none" 
	d="
M2925.157227,667.980957 
	C2924.288818,671.075562 2922.669434,674.180664 2920.496582,677.631104 
	C2914.796631,670.185669 2915.184814,669.316772 2925.157227,667.980957 
z"/>
<path fill="#E1E4EE" opacity="1.000000" stroke="none" 
	d="
M819.584473,506.776428 
	C819.711853,507.307770 819.275940,507.649231 818.294434,507.882233 
	C818.149475,507.377899 818.573669,506.982147 819.584473,506.776428 
z"/>
<path fill="#FFFFFF" opacity="1.000000" stroke="none" 
	d="
M2502.920410,1624.530518 
	C2485.184570,1624.715088 2468.370361,1624.715088 2451.817627,1624.715088 
	C2445.923584,1588.778931 2461.961182,1547.430908 2499.300049,1531.801147 
	C2518.399170,1525.145142 2536.941162,1523.836304 2555.604248,1530.317261 
	C2583.566162,1540.027222 2606.319092,1565.480347 2608.250488,1598.810425 
	C2608.706299,1606.677612 2609.578369,1614.520630 2610.387939,1623.866333 
	C2574.046387,1624.687134 2538.932617,1623.862427 2502.920410,1624.530518 
z"/>
<path fill="#FFFFFF" opacity="1.000000" stroke="none" 
	d="
M3295.068848,1526.043823 
	C3319.085693,1525.962280 3339.744873,1532.970337 3357.535156,1547.779785 
	C3376.544189,1563.603394 3387.543701,1583.962280 3389.957520,1608.539551 
	C3392.895264,1638.452026 3383.741943,1664.383545 3361.928711,1685.221680 
	C3344.663330,1701.715454 3323.893066,1710.390869 3298.883545,1710.520752 
	C3280.055420,1710.537231 3262.113281,1710.367188 3244.171143,1710.212158 
	C3240.596680,1710.181274 3237.021729,1710.207764 3232.850342,1710.207764 
	C3232.850342,1648.731323 3232.850342,1588.356689 3232.850342,1526.515015 
	C3253.231689,1525.863403 3273.698486,1526.473999 3295.068848,1526.043823 
z"/>
</svg>